%TF.GenerationSoftware,KiCad,Pcbnew,8.0.6*%
%TF.CreationDate,2025-05-14T20:02:39-04:00*%
%TF.ProjectId,touch_volume_controller,746f7563-685f-4766-9f6c-756d655f636f,rev?*%
%TF.SameCoordinates,Original*%
%TF.FileFunction,Soldermask,Top*%
%TF.FilePolarity,Negative*%
%FSLAX46Y46*%
G04 Gerber Fmt 4.6, Leading zero omitted, Abs format (unit mm)*
G04 Created by KiCad (PCBNEW 8.0.6) date 2025-05-14 20:02:39*
%MOMM*%
%LPD*%
G01*
G04 APERTURE LIST*
G04 Aperture macros list*
%AMRoundRect*
0 Rectangle with rounded corners*
0 $1 Rounding radius*
0 $2 $3 $4 $5 $6 $7 $8 $9 X,Y pos of 4 corners*
0 Add a 4 corners polygon primitive as box body*
4,1,4,$2,$3,$4,$5,$6,$7,$8,$9,$2,$3,0*
0 Add four circle primitives for the rounded corners*
1,1,$1+$1,$2,$3*
1,1,$1+$1,$4,$5*
1,1,$1+$1,$6,$7*
1,1,$1+$1,$8,$9*
0 Add four rect primitives between the rounded corners*
20,1,$1+$1,$2,$3,$4,$5,0*
20,1,$1+$1,$4,$5,$6,$7,0*
20,1,$1+$1,$6,$7,$8,$9,0*
20,1,$1+$1,$8,$9,$2,$3,0*%
G04 Aperture macros list end*
%ADD10RoundRect,0.200000X-0.200000X-0.275000X0.200000X-0.275000X0.200000X0.275000X-0.200000X0.275000X0*%
%ADD11RoundRect,0.225000X-0.225000X-0.250000X0.225000X-0.250000X0.225000X0.250000X-0.225000X0.250000X0*%
%ADD12R,1.400000X1.200000*%
%ADD13RoundRect,0.250000X-0.325000X-0.650000X0.325000X-0.650000X0.325000X0.650000X-0.325000X0.650000X0*%
%ADD14RoundRect,0.250000X1.000000X0.650000X-1.000000X0.650000X-1.000000X-0.650000X1.000000X-0.650000X0*%
%ADD15C,2.000000*%
%ADD16RoundRect,0.250000X-0.250000X-0.475000X0.250000X-0.475000X0.250000X0.475000X-0.250000X0.475000X0*%
%ADD17RoundRect,0.090000X-0.660000X-0.360000X0.660000X-0.360000X0.660000X0.360000X-0.660000X0.360000X0*%
%ADD18C,0.650000*%
%ADD19R,0.600000X1.450000*%
%ADD20R,0.300000X1.450000*%
%ADD21O,1.000000X2.100000*%
%ADD22O,1.000000X1.600000*%
%ADD23R,1.700000X1.700000*%
%ADD24O,1.700000X1.700000*%
%ADD25RoundRect,0.250000X-0.375000X-0.625000X0.375000X-0.625000X0.375000X0.625000X-0.375000X0.625000X0*%
%ADD26RoundRect,0.050000X-0.387500X-0.050000X0.387500X-0.050000X0.387500X0.050000X-0.387500X0.050000X0*%
%ADD27RoundRect,0.050000X-0.050000X-0.387500X0.050000X-0.387500X0.050000X0.387500X-0.050000X0.387500X0*%
%ADD28R,3.200000X3.200000*%
G04 APERTURE END LIST*
D10*
%TO.C,R4*%
X30137600Y-70180200D03*
X31787600Y-70180200D03*
%TD*%
D11*
%TO.C,C3*%
X33464200Y-79324200D03*
X35014200Y-79324200D03*
%TD*%
D12*
%TO.C,Y1*%
X43627400Y-89128600D03*
X41427400Y-89128600D03*
X41427400Y-90828600D03*
X43627400Y-90828600D03*
%TD*%
D10*
%TO.C,R2*%
X30874200Y-97561400D03*
X32524200Y-97561400D03*
%TD*%
D11*
%TO.C,C1*%
X32829200Y-50876200D03*
X34379200Y-50876200D03*
%TD*%
D13*
%TO.C,C5*%
X38301400Y-104063800D03*
X41251400Y-104063800D03*
%TD*%
D14*
%TO.C,D1*%
X45764200Y-64058800D03*
X41764200Y-64058800D03*
%TD*%
D10*
%TO.C,R3*%
X50889400Y-94792800D03*
X52539400Y-94792800D03*
%TD*%
%TO.C,R1*%
X49213000Y-86233000D03*
X50863000Y-86233000D03*
%TD*%
D11*
%TO.C,C4*%
X49263000Y-80721200D03*
X50813000Y-80721200D03*
%TD*%
D15*
%TO.C,TP1*%
X31724600Y-103962200D03*
%TD*%
D16*
%TO.C,C2*%
X43677800Y-71882000D03*
X45577800Y-71882000D03*
%TD*%
D17*
%TO.C,D2*%
X47816600Y-101423200D03*
X47816600Y-104723200D03*
X52716600Y-104723200D03*
X52716600Y-101423200D03*
%TD*%
D10*
%TO.C,R5*%
X34709600Y-70205600D03*
X36359600Y-70205600D03*
%TD*%
D18*
%TO.C,J1*%
X45003200Y-56041600D03*
X39223200Y-56041600D03*
D19*
X45363200Y-57486600D03*
X44563200Y-57486600D03*
D20*
X43363200Y-57486600D03*
X42363200Y-57486600D03*
X41863200Y-57486600D03*
X40863200Y-57486600D03*
D19*
X39663200Y-57486600D03*
X38863200Y-57486600D03*
X38863200Y-57486600D03*
X39663200Y-57486600D03*
D20*
X40363200Y-57486600D03*
X41363200Y-57486600D03*
X42863200Y-57486600D03*
X43863200Y-57486600D03*
D19*
X44563200Y-57486600D03*
X45363200Y-57486600D03*
D21*
X46433200Y-56571600D03*
D22*
X46433200Y-52391600D03*
D21*
X37793200Y-56571600D03*
D22*
X37793200Y-52391600D03*
%TD*%
D23*
%TO.C,J2*%
X30962200Y-56525000D03*
D24*
X30962200Y-59065000D03*
X30962200Y-61605000D03*
X30962200Y-64145000D03*
%TD*%
D25*
%TO.C,F1*%
X50111200Y-51333400D03*
X52911200Y-51333400D03*
%TD*%
D26*
%TO.C,U1*%
X38736100Y-78332900D03*
X38736100Y-78732900D03*
X38736100Y-79132900D03*
X38736100Y-79532900D03*
X38736100Y-79932900D03*
X38736100Y-80332900D03*
X38736100Y-80732900D03*
X38736100Y-81132900D03*
X38736100Y-81532900D03*
X38736100Y-81932900D03*
X38736100Y-82332900D03*
X38736100Y-82732900D03*
X38736100Y-83132900D03*
X38736100Y-83532900D03*
D27*
X39573600Y-84370400D03*
X39973600Y-84370400D03*
X40373600Y-84370400D03*
X40773600Y-84370400D03*
X41173600Y-84370400D03*
X41573600Y-84370400D03*
X41973600Y-84370400D03*
X42373600Y-84370400D03*
X42773600Y-84370400D03*
X43173600Y-84370400D03*
X43573600Y-84370400D03*
X43973600Y-84370400D03*
X44373600Y-84370400D03*
X44773600Y-84370400D03*
D26*
X45611100Y-83532900D03*
X45611100Y-83132900D03*
X45611100Y-82732900D03*
X45611100Y-82332900D03*
X45611100Y-81932900D03*
X45611100Y-81532900D03*
X45611100Y-81132900D03*
X45611100Y-80732900D03*
X45611100Y-80332900D03*
X45611100Y-79932900D03*
X45611100Y-79532900D03*
X45611100Y-79132900D03*
X45611100Y-78732900D03*
X45611100Y-78332900D03*
D27*
X44773600Y-77495400D03*
X44373600Y-77495400D03*
X43973600Y-77495400D03*
X43573600Y-77495400D03*
X43173600Y-77495400D03*
X42773600Y-77495400D03*
X42373600Y-77495400D03*
X41973600Y-77495400D03*
X41573600Y-77495400D03*
X41173600Y-77495400D03*
X40773600Y-77495400D03*
X40373600Y-77495400D03*
X39973600Y-77495400D03*
X39573600Y-77495400D03*
D28*
X42173600Y-80932900D03*
%TD*%
M02*
