%TF.GenerationSoftware,KiCad,Pcbnew,8.0.6*%
%TF.CreationDate,2025-05-14T20:02:42-04:00*%
%TF.ProjectId,touch_volume_controller,746f7563-685f-4766-9f6c-756d655f636f,rev?*%
%TF.SameCoordinates,Original*%
%TF.FileFunction,Drillmap*%
%TF.FilePolarity,Positive*%
%FSLAX45Y45*%
G04 Gerber Fmt 4.5, Leading zero omitted, Abs format (unit mm)*
G04 Created by KiCad (PCBNEW 8.0.6) date 2025-05-14 20:02:42*
%MOMM*%
%LPD*%
G01*
G04 APERTURE LIST*
%ADD10C,0.050000*%
%ADD11C,0.200000*%
%ADD12C,0.100000*%
G04 APERTURE END LIST*
D10*
X2834640Y-4841240D02*
X5511800Y-4841240D01*
X5511800Y-10797540D01*
X2834640Y-10797540D01*
X2834640Y-4841240D01*
D11*
D12*
X3107809Y-7933809D02*
X3137809Y-7963809D01*
X3137809Y-7933809D02*
X3107809Y-7963809D01*
X3279380Y-7643100D02*
X3309380Y-7673100D01*
X3309380Y-7643100D02*
X3279380Y-7673100D01*
X3672145Y-7913695D02*
X3702145Y-7943695D01*
X3702145Y-7913695D02*
X3672145Y-7943695D01*
X3675620Y-7993620D02*
X3705620Y-8023620D01*
X3705620Y-7993620D02*
X3675620Y-8023620D01*
X3678160Y-8074900D02*
X3708160Y-8104900D01*
X3708160Y-8074900D02*
X3678160Y-8104900D01*
X3742283Y-8578444D02*
X3772283Y-8608444D01*
X3772283Y-8578444D02*
X3742283Y-8608444D01*
X4076940Y-7239240D02*
X4106940Y-7269240D01*
X4106940Y-7239240D02*
X4076940Y-7269240D01*
X4202360Y-8078290D02*
X4232360Y-8108290D01*
X4232360Y-8078290D02*
X4202360Y-8108290D01*
X4679860Y-7896913D02*
X4709860Y-7926913D01*
X4709860Y-7896913D02*
X4679860Y-7926913D01*
X4691620Y-8173960D02*
X4721620Y-8203960D01*
X4721620Y-8173960D02*
X4691620Y-8203960D01*
X4735947Y-7956913D02*
X4765947Y-7986913D01*
X4765947Y-7956913D02*
X4735947Y-7986913D01*
X5374880Y-5847320D02*
X5404880Y-5877320D01*
X5404880Y-5847320D02*
X5374880Y-5877320D01*
X3809320Y-5239160D02*
G75*
G02*
X3749320Y-5239160I-30000J0D01*
G01*
X3749320Y-5239160D02*
G75*
G02*
X3809320Y-5239160I30000J0D01*
G01*
X3809320Y-5269160D02*
X3809320Y-5209160D01*
X3749320Y-5209160D02*
G75*
G02*
X3809320Y-5209160I30000J0D01*
G01*
X3749320Y-5209160D02*
X3749320Y-5269160D01*
X3749320Y-5269160D02*
G75*
G03*
X3809320Y-5269160I30000J0D01*
G01*
X3809320Y-5657160D02*
G75*
G02*
X3749320Y-5657160I-30000J0D01*
G01*
X3749320Y-5657160D02*
G75*
G02*
X3809320Y-5657160I30000J0D01*
G01*
X3809320Y-5712160D02*
X3809320Y-5602160D01*
X3749320Y-5602160D02*
G75*
G02*
X3809320Y-5602160I30000J0D01*
G01*
X3749320Y-5602160D02*
X3749320Y-5712160D01*
X3749320Y-5712160D02*
G75*
G03*
X3809320Y-5712160I30000J0D01*
G01*
X4673320Y-5239160D02*
G75*
G02*
X4613320Y-5239160I-30000J0D01*
G01*
X4613320Y-5239160D02*
G75*
G02*
X4673320Y-5239160I30000J0D01*
G01*
X4673320Y-5269160D02*
X4673320Y-5209160D01*
X4613320Y-5209160D02*
G75*
G02*
X4673320Y-5209160I30000J0D01*
G01*
X4613320Y-5209160D02*
X4613320Y-5269160D01*
X4613320Y-5269160D02*
G75*
G03*
X4673320Y-5269160I30000J0D01*
G01*
X4673320Y-5657160D02*
G75*
G02*
X4613320Y-5657160I-30000J0D01*
G01*
X4613320Y-5657160D02*
G75*
G02*
X4673320Y-5657160I30000J0D01*
G01*
X4673320Y-5712160D02*
X4673320Y-5602160D01*
X4613320Y-5602160D02*
G75*
G02*
X4673320Y-5602160I30000J0D01*
G01*
X4613320Y-5602160D02*
X4613320Y-5712160D01*
X4613320Y-5712160D02*
G75*
G03*
X4673320Y-5712160I30000J0D01*
G01*
X3096220Y-5602500D02*
X3096220Y-5702500D01*
X3046220Y-5652500D02*
X3146220Y-5652500D01*
X3096220Y-5856500D02*
X3096220Y-5956500D01*
X3046220Y-5906500D02*
X3146220Y-5906500D01*
X3096220Y-6110500D02*
X3096220Y-6210500D01*
X3046220Y-6160500D02*
X3146220Y-6160500D01*
X3096220Y-6364500D02*
X3096220Y-6464500D01*
X3046220Y-6414500D02*
X3146220Y-6414500D01*
D11*
X3092917Y-11111524D02*
X3092917Y-10911524D01*
X3092917Y-10911524D02*
X3140536Y-10911524D01*
X3140536Y-10911524D02*
X3169107Y-10921048D01*
X3169107Y-10921048D02*
X3188155Y-10940095D01*
X3188155Y-10940095D02*
X3197679Y-10959143D01*
X3197679Y-10959143D02*
X3207202Y-10997238D01*
X3207202Y-10997238D02*
X3207202Y-11025810D01*
X3207202Y-11025810D02*
X3197679Y-11063905D01*
X3197679Y-11063905D02*
X3188155Y-11082952D01*
X3188155Y-11082952D02*
X3169107Y-11102000D01*
X3169107Y-11102000D02*
X3140536Y-11111524D01*
X3140536Y-11111524D02*
X3092917Y-11111524D01*
X3292917Y-11111524D02*
X3292917Y-10978190D01*
X3292917Y-11016286D02*
X3302441Y-10997238D01*
X3302441Y-10997238D02*
X3311964Y-10987714D01*
X3311964Y-10987714D02*
X3331012Y-10978190D01*
X3331012Y-10978190D02*
X3350060Y-10978190D01*
X3416726Y-11111524D02*
X3416726Y-10978190D01*
X3416726Y-10911524D02*
X3407202Y-10921048D01*
X3407202Y-10921048D02*
X3416726Y-10930571D01*
X3416726Y-10930571D02*
X3426250Y-10921048D01*
X3426250Y-10921048D02*
X3416726Y-10911524D01*
X3416726Y-10911524D02*
X3416726Y-10930571D01*
X3540536Y-11111524D02*
X3521488Y-11102000D01*
X3521488Y-11102000D02*
X3511964Y-11082952D01*
X3511964Y-11082952D02*
X3511964Y-10911524D01*
X3645298Y-11111524D02*
X3626250Y-11102000D01*
X3626250Y-11102000D02*
X3616726Y-11082952D01*
X3616726Y-11082952D02*
X3616726Y-10911524D01*
X3873869Y-11111524D02*
X3873869Y-10911524D01*
X3873869Y-10911524D02*
X3940536Y-11054381D01*
X3940536Y-11054381D02*
X4007202Y-10911524D01*
X4007202Y-10911524D02*
X4007202Y-11111524D01*
X4188155Y-11111524D02*
X4188155Y-11006762D01*
X4188155Y-11006762D02*
X4178631Y-10987714D01*
X4178631Y-10987714D02*
X4159583Y-10978190D01*
X4159583Y-10978190D02*
X4121488Y-10978190D01*
X4121488Y-10978190D02*
X4102441Y-10987714D01*
X4188155Y-11102000D02*
X4169107Y-11111524D01*
X4169107Y-11111524D02*
X4121488Y-11111524D01*
X4121488Y-11111524D02*
X4102441Y-11102000D01*
X4102441Y-11102000D02*
X4092917Y-11082952D01*
X4092917Y-11082952D02*
X4092917Y-11063905D01*
X4092917Y-11063905D02*
X4102441Y-11044857D01*
X4102441Y-11044857D02*
X4121488Y-11035333D01*
X4121488Y-11035333D02*
X4169107Y-11035333D01*
X4169107Y-11035333D02*
X4188155Y-11025810D01*
X4283393Y-10978190D02*
X4283393Y-11178190D01*
X4283393Y-10987714D02*
X4302441Y-10978190D01*
X4302441Y-10978190D02*
X4340536Y-10978190D01*
X4340536Y-10978190D02*
X4359584Y-10987714D01*
X4359584Y-10987714D02*
X4369107Y-10997238D01*
X4369107Y-10997238D02*
X4378631Y-11016286D01*
X4378631Y-11016286D02*
X4378631Y-11073429D01*
X4378631Y-11073429D02*
X4369107Y-11092476D01*
X4369107Y-11092476D02*
X4359584Y-11102000D01*
X4359584Y-11102000D02*
X4340536Y-11111524D01*
X4340536Y-11111524D02*
X4302441Y-11111524D01*
X4302441Y-11111524D02*
X4283393Y-11102000D01*
X4464345Y-11092476D02*
X4473869Y-11102000D01*
X4473869Y-11102000D02*
X4464345Y-11111524D01*
X4464345Y-11111524D02*
X4454822Y-11102000D01*
X4454822Y-11102000D02*
X4464345Y-11092476D01*
X4464345Y-11092476D02*
X4464345Y-11111524D01*
X4464345Y-10987714D02*
X4473869Y-10997238D01*
X4473869Y-10997238D02*
X4464345Y-11006762D01*
X4464345Y-11006762D02*
X4454822Y-10997238D01*
X4454822Y-10997238D02*
X4464345Y-10987714D01*
X4464345Y-10987714D02*
X4464345Y-11006762D01*
D12*
X2802140Y-11425040D02*
X2832140Y-11455040D01*
X2832140Y-11425040D02*
X2802140Y-11455040D01*
D11*
X3131012Y-11331524D02*
X3150060Y-11331524D01*
X3150060Y-11331524D02*
X3169107Y-11341048D01*
X3169107Y-11341048D02*
X3178631Y-11350571D01*
X3178631Y-11350571D02*
X3188155Y-11369619D01*
X3188155Y-11369619D02*
X3197679Y-11407714D01*
X3197679Y-11407714D02*
X3197679Y-11455333D01*
X3197679Y-11455333D02*
X3188155Y-11493428D01*
X3188155Y-11493428D02*
X3178631Y-11512476D01*
X3178631Y-11512476D02*
X3169107Y-11522000D01*
X3169107Y-11522000D02*
X3150060Y-11531524D01*
X3150060Y-11531524D02*
X3131012Y-11531524D01*
X3131012Y-11531524D02*
X3111964Y-11522000D01*
X3111964Y-11522000D02*
X3102441Y-11512476D01*
X3102441Y-11512476D02*
X3092917Y-11493428D01*
X3092917Y-11493428D02*
X3083393Y-11455333D01*
X3083393Y-11455333D02*
X3083393Y-11407714D01*
X3083393Y-11407714D02*
X3092917Y-11369619D01*
X3092917Y-11369619D02*
X3102441Y-11350571D01*
X3102441Y-11350571D02*
X3111964Y-11341048D01*
X3111964Y-11341048D02*
X3131012Y-11331524D01*
X3283393Y-11512476D02*
X3292917Y-11522000D01*
X3292917Y-11522000D02*
X3283393Y-11531524D01*
X3283393Y-11531524D02*
X3273869Y-11522000D01*
X3273869Y-11522000D02*
X3283393Y-11512476D01*
X3283393Y-11512476D02*
X3283393Y-11531524D01*
X3359583Y-11331524D02*
X3483393Y-11331524D01*
X3483393Y-11331524D02*
X3416726Y-11407714D01*
X3416726Y-11407714D02*
X3445298Y-11407714D01*
X3445298Y-11407714D02*
X3464345Y-11417238D01*
X3464345Y-11417238D02*
X3473869Y-11426762D01*
X3473869Y-11426762D02*
X3483393Y-11445809D01*
X3483393Y-11445809D02*
X3483393Y-11493428D01*
X3483393Y-11493428D02*
X3473869Y-11512476D01*
X3473869Y-11512476D02*
X3464345Y-11522000D01*
X3464345Y-11522000D02*
X3445298Y-11531524D01*
X3445298Y-11531524D02*
X3388155Y-11531524D01*
X3388155Y-11531524D02*
X3369107Y-11522000D01*
X3369107Y-11522000D02*
X3359583Y-11512476D01*
X3607202Y-11331524D02*
X3626250Y-11331524D01*
X3626250Y-11331524D02*
X3645298Y-11341048D01*
X3645298Y-11341048D02*
X3654822Y-11350571D01*
X3654822Y-11350571D02*
X3664345Y-11369619D01*
X3664345Y-11369619D02*
X3673869Y-11407714D01*
X3673869Y-11407714D02*
X3673869Y-11455333D01*
X3673869Y-11455333D02*
X3664345Y-11493428D01*
X3664345Y-11493428D02*
X3654822Y-11512476D01*
X3654822Y-11512476D02*
X3645298Y-11522000D01*
X3645298Y-11522000D02*
X3626250Y-11531524D01*
X3626250Y-11531524D02*
X3607202Y-11531524D01*
X3607202Y-11531524D02*
X3588155Y-11522000D01*
X3588155Y-11522000D02*
X3578631Y-11512476D01*
X3578631Y-11512476D02*
X3569107Y-11493428D01*
X3569107Y-11493428D02*
X3559583Y-11455333D01*
X3559583Y-11455333D02*
X3559583Y-11407714D01*
X3559583Y-11407714D02*
X3569107Y-11369619D01*
X3569107Y-11369619D02*
X3578631Y-11350571D01*
X3578631Y-11350571D02*
X3588155Y-11341048D01*
X3588155Y-11341048D02*
X3607202Y-11331524D01*
X3797679Y-11331524D02*
X3816726Y-11331524D01*
X3816726Y-11331524D02*
X3835774Y-11341048D01*
X3835774Y-11341048D02*
X3845298Y-11350571D01*
X3845298Y-11350571D02*
X3854822Y-11369619D01*
X3854822Y-11369619D02*
X3864345Y-11407714D01*
X3864345Y-11407714D02*
X3864345Y-11455333D01*
X3864345Y-11455333D02*
X3854822Y-11493428D01*
X3854822Y-11493428D02*
X3845298Y-11512476D01*
X3845298Y-11512476D02*
X3835774Y-11522000D01*
X3835774Y-11522000D02*
X3816726Y-11531524D01*
X3816726Y-11531524D02*
X3797679Y-11531524D01*
X3797679Y-11531524D02*
X3778631Y-11522000D01*
X3778631Y-11522000D02*
X3769107Y-11512476D01*
X3769107Y-11512476D02*
X3759583Y-11493428D01*
X3759583Y-11493428D02*
X3750060Y-11455333D01*
X3750060Y-11455333D02*
X3750060Y-11407714D01*
X3750060Y-11407714D02*
X3759583Y-11369619D01*
X3759583Y-11369619D02*
X3769107Y-11350571D01*
X3769107Y-11350571D02*
X3778631Y-11341048D01*
X3778631Y-11341048D02*
X3797679Y-11331524D01*
X3950060Y-11531524D02*
X3950060Y-11398190D01*
X3950060Y-11417238D02*
X3959583Y-11407714D01*
X3959583Y-11407714D02*
X3978631Y-11398190D01*
X3978631Y-11398190D02*
X4007203Y-11398190D01*
X4007203Y-11398190D02*
X4026250Y-11407714D01*
X4026250Y-11407714D02*
X4035774Y-11426762D01*
X4035774Y-11426762D02*
X4035774Y-11531524D01*
X4035774Y-11426762D02*
X4045298Y-11407714D01*
X4045298Y-11407714D02*
X4064345Y-11398190D01*
X4064345Y-11398190D02*
X4092917Y-11398190D01*
X4092917Y-11398190D02*
X4111964Y-11407714D01*
X4111964Y-11407714D02*
X4121488Y-11426762D01*
X4121488Y-11426762D02*
X4121488Y-11531524D01*
X4216726Y-11531524D02*
X4216726Y-11398190D01*
X4216726Y-11417238D02*
X4226250Y-11407714D01*
X4226250Y-11407714D02*
X4245298Y-11398190D01*
X4245298Y-11398190D02*
X4273869Y-11398190D01*
X4273869Y-11398190D02*
X4292917Y-11407714D01*
X4292917Y-11407714D02*
X4302441Y-11426762D01*
X4302441Y-11426762D02*
X4302441Y-11531524D01*
X4302441Y-11426762D02*
X4311965Y-11407714D01*
X4311965Y-11407714D02*
X4331012Y-11398190D01*
X4331012Y-11398190D02*
X4359584Y-11398190D01*
X4359584Y-11398190D02*
X4378631Y-11407714D01*
X4378631Y-11407714D02*
X4388155Y-11426762D01*
X4388155Y-11426762D02*
X4388155Y-11531524D01*
X4778631Y-11322000D02*
X4607203Y-11579143D01*
X5035774Y-11331524D02*
X5054822Y-11331524D01*
X5054822Y-11331524D02*
X5073869Y-11341048D01*
X5073869Y-11341048D02*
X5083393Y-11350571D01*
X5083393Y-11350571D02*
X5092917Y-11369619D01*
X5092917Y-11369619D02*
X5102441Y-11407714D01*
X5102441Y-11407714D02*
X5102441Y-11455333D01*
X5102441Y-11455333D02*
X5092917Y-11493428D01*
X5092917Y-11493428D02*
X5083393Y-11512476D01*
X5083393Y-11512476D02*
X5073869Y-11522000D01*
X5073869Y-11522000D02*
X5054822Y-11531524D01*
X5054822Y-11531524D02*
X5035774Y-11531524D01*
X5035774Y-11531524D02*
X5016727Y-11522000D01*
X5016727Y-11522000D02*
X5007203Y-11512476D01*
X5007203Y-11512476D02*
X4997679Y-11493428D01*
X4997679Y-11493428D02*
X4988155Y-11455333D01*
X4988155Y-11455333D02*
X4988155Y-11407714D01*
X4988155Y-11407714D02*
X4997679Y-11369619D01*
X4997679Y-11369619D02*
X5007203Y-11350571D01*
X5007203Y-11350571D02*
X5016727Y-11341048D01*
X5016727Y-11341048D02*
X5035774Y-11331524D01*
X5188155Y-11512476D02*
X5197679Y-11522000D01*
X5197679Y-11522000D02*
X5188155Y-11531524D01*
X5188155Y-11531524D02*
X5178631Y-11522000D01*
X5178631Y-11522000D02*
X5188155Y-11512476D01*
X5188155Y-11512476D02*
X5188155Y-11531524D01*
X5321488Y-11331524D02*
X5340536Y-11331524D01*
X5340536Y-11331524D02*
X5359584Y-11341048D01*
X5359584Y-11341048D02*
X5369108Y-11350571D01*
X5369108Y-11350571D02*
X5378631Y-11369619D01*
X5378631Y-11369619D02*
X5388155Y-11407714D01*
X5388155Y-11407714D02*
X5388155Y-11455333D01*
X5388155Y-11455333D02*
X5378631Y-11493428D01*
X5378631Y-11493428D02*
X5369108Y-11512476D01*
X5369108Y-11512476D02*
X5359584Y-11522000D01*
X5359584Y-11522000D02*
X5340536Y-11531524D01*
X5340536Y-11531524D02*
X5321488Y-11531524D01*
X5321488Y-11531524D02*
X5302441Y-11522000D01*
X5302441Y-11522000D02*
X5292917Y-11512476D01*
X5292917Y-11512476D02*
X5283393Y-11493428D01*
X5283393Y-11493428D02*
X5273869Y-11455333D01*
X5273869Y-11455333D02*
X5273869Y-11407714D01*
X5273869Y-11407714D02*
X5283393Y-11369619D01*
X5283393Y-11369619D02*
X5292917Y-11350571D01*
X5292917Y-11350571D02*
X5302441Y-11341048D01*
X5302441Y-11341048D02*
X5321488Y-11331524D01*
X5578631Y-11531524D02*
X5464346Y-11531524D01*
X5521488Y-11531524D02*
X5521488Y-11331524D01*
X5521488Y-11331524D02*
X5502441Y-11360095D01*
X5502441Y-11360095D02*
X5483393Y-11379143D01*
X5483393Y-11379143D02*
X5464346Y-11388667D01*
X5769107Y-11531524D02*
X5654822Y-11531524D01*
X5711965Y-11531524D02*
X5711965Y-11331524D01*
X5711965Y-11331524D02*
X5692917Y-11360095D01*
X5692917Y-11360095D02*
X5673869Y-11379143D01*
X5673869Y-11379143D02*
X5654822Y-11388667D01*
X5883393Y-11417238D02*
X5864346Y-11407714D01*
X5864346Y-11407714D02*
X5854822Y-11398190D01*
X5854822Y-11398190D02*
X5845298Y-11379143D01*
X5845298Y-11379143D02*
X5845298Y-11369619D01*
X5845298Y-11369619D02*
X5854822Y-11350571D01*
X5854822Y-11350571D02*
X5864346Y-11341048D01*
X5864346Y-11341048D02*
X5883393Y-11331524D01*
X5883393Y-11331524D02*
X5921488Y-11331524D01*
X5921488Y-11331524D02*
X5940536Y-11341048D01*
X5940536Y-11341048D02*
X5950060Y-11350571D01*
X5950060Y-11350571D02*
X5959584Y-11369619D01*
X5959584Y-11369619D02*
X5959584Y-11379143D01*
X5959584Y-11379143D02*
X5950060Y-11398190D01*
X5950060Y-11398190D02*
X5940536Y-11407714D01*
X5940536Y-11407714D02*
X5921488Y-11417238D01*
X5921488Y-11417238D02*
X5883393Y-11417238D01*
X5883393Y-11417238D02*
X5864346Y-11426762D01*
X5864346Y-11426762D02*
X5854822Y-11436286D01*
X5854822Y-11436286D02*
X5845298Y-11455333D01*
X5845298Y-11455333D02*
X5845298Y-11493428D01*
X5845298Y-11493428D02*
X5854822Y-11512476D01*
X5854822Y-11512476D02*
X5864346Y-11522000D01*
X5864346Y-11522000D02*
X5883393Y-11531524D01*
X5883393Y-11531524D02*
X5921488Y-11531524D01*
X5921488Y-11531524D02*
X5940536Y-11522000D01*
X5940536Y-11522000D02*
X5950060Y-11512476D01*
X5950060Y-11512476D02*
X5959584Y-11493428D01*
X5959584Y-11493428D02*
X5959584Y-11455333D01*
X5959584Y-11455333D02*
X5950060Y-11436286D01*
X5950060Y-11436286D02*
X5940536Y-11426762D01*
X5940536Y-11426762D02*
X5921488Y-11417238D01*
X6035774Y-11331524D02*
X6035774Y-11369619D01*
X6111965Y-11331524D02*
X6111965Y-11369619D01*
X6407203Y-11607714D02*
X6397679Y-11598190D01*
X6397679Y-11598190D02*
X6378631Y-11569619D01*
X6378631Y-11569619D02*
X6369108Y-11550571D01*
X6369108Y-11550571D02*
X6359584Y-11522000D01*
X6359584Y-11522000D02*
X6350060Y-11474381D01*
X6350060Y-11474381D02*
X6350060Y-11436286D01*
X6350060Y-11436286D02*
X6359584Y-11388667D01*
X6359584Y-11388667D02*
X6369108Y-11360095D01*
X6369108Y-11360095D02*
X6378631Y-11341048D01*
X6378631Y-11341048D02*
X6397679Y-11312476D01*
X6397679Y-11312476D02*
X6407203Y-11302952D01*
X6588155Y-11531524D02*
X6473869Y-11531524D01*
X6531012Y-11531524D02*
X6531012Y-11331524D01*
X6531012Y-11331524D02*
X6511965Y-11360095D01*
X6511965Y-11360095D02*
X6492917Y-11379143D01*
X6492917Y-11379143D02*
X6473869Y-11388667D01*
X6664346Y-11350571D02*
X6673869Y-11341048D01*
X6673869Y-11341048D02*
X6692917Y-11331524D01*
X6692917Y-11331524D02*
X6740536Y-11331524D01*
X6740536Y-11331524D02*
X6759584Y-11341048D01*
X6759584Y-11341048D02*
X6769108Y-11350571D01*
X6769108Y-11350571D02*
X6778631Y-11369619D01*
X6778631Y-11369619D02*
X6778631Y-11388667D01*
X6778631Y-11388667D02*
X6769108Y-11417238D01*
X6769108Y-11417238D02*
X6654822Y-11531524D01*
X6654822Y-11531524D02*
X6778631Y-11531524D01*
X7016727Y-11531524D02*
X7016727Y-11331524D01*
X7102441Y-11531524D02*
X7102441Y-11426762D01*
X7102441Y-11426762D02*
X7092917Y-11407714D01*
X7092917Y-11407714D02*
X7073870Y-11398190D01*
X7073870Y-11398190D02*
X7045298Y-11398190D01*
X7045298Y-11398190D02*
X7026250Y-11407714D01*
X7026250Y-11407714D02*
X7016727Y-11417238D01*
X7226250Y-11531524D02*
X7207203Y-11522000D01*
X7207203Y-11522000D02*
X7197679Y-11512476D01*
X7197679Y-11512476D02*
X7188155Y-11493428D01*
X7188155Y-11493428D02*
X7188155Y-11436286D01*
X7188155Y-11436286D02*
X7197679Y-11417238D01*
X7197679Y-11417238D02*
X7207203Y-11407714D01*
X7207203Y-11407714D02*
X7226250Y-11398190D01*
X7226250Y-11398190D02*
X7254822Y-11398190D01*
X7254822Y-11398190D02*
X7273870Y-11407714D01*
X7273870Y-11407714D02*
X7283393Y-11417238D01*
X7283393Y-11417238D02*
X7292917Y-11436286D01*
X7292917Y-11436286D02*
X7292917Y-11493428D01*
X7292917Y-11493428D02*
X7283393Y-11512476D01*
X7283393Y-11512476D02*
X7273870Y-11522000D01*
X7273870Y-11522000D02*
X7254822Y-11531524D01*
X7254822Y-11531524D02*
X7226250Y-11531524D01*
X7407203Y-11531524D02*
X7388155Y-11522000D01*
X7388155Y-11522000D02*
X7378631Y-11502952D01*
X7378631Y-11502952D02*
X7378631Y-11331524D01*
X7559584Y-11522000D02*
X7540536Y-11531524D01*
X7540536Y-11531524D02*
X7502441Y-11531524D01*
X7502441Y-11531524D02*
X7483393Y-11522000D01*
X7483393Y-11522000D02*
X7473870Y-11502952D01*
X7473870Y-11502952D02*
X7473870Y-11426762D01*
X7473870Y-11426762D02*
X7483393Y-11407714D01*
X7483393Y-11407714D02*
X7502441Y-11398190D01*
X7502441Y-11398190D02*
X7540536Y-11398190D01*
X7540536Y-11398190D02*
X7559584Y-11407714D01*
X7559584Y-11407714D02*
X7569108Y-11426762D01*
X7569108Y-11426762D02*
X7569108Y-11445809D01*
X7569108Y-11445809D02*
X7473870Y-11464857D01*
X7645298Y-11522000D02*
X7664346Y-11531524D01*
X7664346Y-11531524D02*
X7702441Y-11531524D01*
X7702441Y-11531524D02*
X7721489Y-11522000D01*
X7721489Y-11522000D02*
X7731012Y-11502952D01*
X7731012Y-11502952D02*
X7731012Y-11493428D01*
X7731012Y-11493428D02*
X7721489Y-11474381D01*
X7721489Y-11474381D02*
X7702441Y-11464857D01*
X7702441Y-11464857D02*
X7673870Y-11464857D01*
X7673870Y-11464857D02*
X7654822Y-11455333D01*
X7654822Y-11455333D02*
X7645298Y-11436286D01*
X7645298Y-11436286D02*
X7645298Y-11426762D01*
X7645298Y-11426762D02*
X7654822Y-11407714D01*
X7654822Y-11407714D02*
X7673870Y-11398190D01*
X7673870Y-11398190D02*
X7702441Y-11398190D01*
X7702441Y-11398190D02*
X7721489Y-11407714D01*
X7797679Y-11607714D02*
X7807203Y-11598190D01*
X7807203Y-11598190D02*
X7826251Y-11569619D01*
X7826251Y-11569619D02*
X7835774Y-11550571D01*
X7835774Y-11550571D02*
X7845298Y-11522000D01*
X7845298Y-11522000D02*
X7854822Y-11474381D01*
X7854822Y-11474381D02*
X7854822Y-11436286D01*
X7854822Y-11436286D02*
X7845298Y-11388667D01*
X7845298Y-11388667D02*
X7835774Y-11360095D01*
X7835774Y-11360095D02*
X7826251Y-11341048D01*
X7826251Y-11341048D02*
X7807203Y-11312476D01*
X7807203Y-11312476D02*
X7797679Y-11302952D01*
D12*
X2832140Y-11704040D02*
G75*
G02*
X2772140Y-11704040I-30000J0D01*
G01*
X2772140Y-11704040D02*
G75*
G02*
X2832140Y-11704040I30000J0D01*
G01*
D11*
X3131012Y-11595524D02*
X3150060Y-11595524D01*
X3150060Y-11595524D02*
X3169107Y-11605048D01*
X3169107Y-11605048D02*
X3178631Y-11614571D01*
X3178631Y-11614571D02*
X3188155Y-11633619D01*
X3188155Y-11633619D02*
X3197679Y-11671714D01*
X3197679Y-11671714D02*
X3197679Y-11719333D01*
X3197679Y-11719333D02*
X3188155Y-11757428D01*
X3188155Y-11757428D02*
X3178631Y-11776476D01*
X3178631Y-11776476D02*
X3169107Y-11786000D01*
X3169107Y-11786000D02*
X3150060Y-11795524D01*
X3150060Y-11795524D02*
X3131012Y-11795524D01*
X3131012Y-11795524D02*
X3111964Y-11786000D01*
X3111964Y-11786000D02*
X3102441Y-11776476D01*
X3102441Y-11776476D02*
X3092917Y-11757428D01*
X3092917Y-11757428D02*
X3083393Y-11719333D01*
X3083393Y-11719333D02*
X3083393Y-11671714D01*
X3083393Y-11671714D02*
X3092917Y-11633619D01*
X3092917Y-11633619D02*
X3102441Y-11614571D01*
X3102441Y-11614571D02*
X3111964Y-11605048D01*
X3111964Y-11605048D02*
X3131012Y-11595524D01*
X3283393Y-11776476D02*
X3292917Y-11786000D01*
X3292917Y-11786000D02*
X3283393Y-11795524D01*
X3283393Y-11795524D02*
X3273869Y-11786000D01*
X3273869Y-11786000D02*
X3283393Y-11776476D01*
X3283393Y-11776476D02*
X3283393Y-11795524D01*
X3464345Y-11595524D02*
X3426250Y-11595524D01*
X3426250Y-11595524D02*
X3407202Y-11605048D01*
X3407202Y-11605048D02*
X3397679Y-11614571D01*
X3397679Y-11614571D02*
X3378631Y-11643143D01*
X3378631Y-11643143D02*
X3369107Y-11681238D01*
X3369107Y-11681238D02*
X3369107Y-11757428D01*
X3369107Y-11757428D02*
X3378631Y-11776476D01*
X3378631Y-11776476D02*
X3388155Y-11786000D01*
X3388155Y-11786000D02*
X3407202Y-11795524D01*
X3407202Y-11795524D02*
X3445298Y-11795524D01*
X3445298Y-11795524D02*
X3464345Y-11786000D01*
X3464345Y-11786000D02*
X3473869Y-11776476D01*
X3473869Y-11776476D02*
X3483393Y-11757428D01*
X3483393Y-11757428D02*
X3483393Y-11709809D01*
X3483393Y-11709809D02*
X3473869Y-11690762D01*
X3473869Y-11690762D02*
X3464345Y-11681238D01*
X3464345Y-11681238D02*
X3445298Y-11671714D01*
X3445298Y-11671714D02*
X3407202Y-11671714D01*
X3407202Y-11671714D02*
X3388155Y-11681238D01*
X3388155Y-11681238D02*
X3378631Y-11690762D01*
X3378631Y-11690762D02*
X3369107Y-11709809D01*
X3607202Y-11595524D02*
X3626250Y-11595524D01*
X3626250Y-11595524D02*
X3645298Y-11605048D01*
X3645298Y-11605048D02*
X3654822Y-11614571D01*
X3654822Y-11614571D02*
X3664345Y-11633619D01*
X3664345Y-11633619D02*
X3673869Y-11671714D01*
X3673869Y-11671714D02*
X3673869Y-11719333D01*
X3673869Y-11719333D02*
X3664345Y-11757428D01*
X3664345Y-11757428D02*
X3654822Y-11776476D01*
X3654822Y-11776476D02*
X3645298Y-11786000D01*
X3645298Y-11786000D02*
X3626250Y-11795524D01*
X3626250Y-11795524D02*
X3607202Y-11795524D01*
X3607202Y-11795524D02*
X3588155Y-11786000D01*
X3588155Y-11786000D02*
X3578631Y-11776476D01*
X3578631Y-11776476D02*
X3569107Y-11757428D01*
X3569107Y-11757428D02*
X3559583Y-11719333D01*
X3559583Y-11719333D02*
X3559583Y-11671714D01*
X3559583Y-11671714D02*
X3569107Y-11633619D01*
X3569107Y-11633619D02*
X3578631Y-11614571D01*
X3578631Y-11614571D02*
X3588155Y-11605048D01*
X3588155Y-11605048D02*
X3607202Y-11595524D01*
X3797679Y-11595524D02*
X3816726Y-11595524D01*
X3816726Y-11595524D02*
X3835774Y-11605048D01*
X3835774Y-11605048D02*
X3845298Y-11614571D01*
X3845298Y-11614571D02*
X3854822Y-11633619D01*
X3854822Y-11633619D02*
X3864345Y-11671714D01*
X3864345Y-11671714D02*
X3864345Y-11719333D01*
X3864345Y-11719333D02*
X3854822Y-11757428D01*
X3854822Y-11757428D02*
X3845298Y-11776476D01*
X3845298Y-11776476D02*
X3835774Y-11786000D01*
X3835774Y-11786000D02*
X3816726Y-11795524D01*
X3816726Y-11795524D02*
X3797679Y-11795524D01*
X3797679Y-11795524D02*
X3778631Y-11786000D01*
X3778631Y-11786000D02*
X3769107Y-11776476D01*
X3769107Y-11776476D02*
X3759583Y-11757428D01*
X3759583Y-11757428D02*
X3750060Y-11719333D01*
X3750060Y-11719333D02*
X3750060Y-11671714D01*
X3750060Y-11671714D02*
X3759583Y-11633619D01*
X3759583Y-11633619D02*
X3769107Y-11614571D01*
X3769107Y-11614571D02*
X3778631Y-11605048D01*
X3778631Y-11605048D02*
X3797679Y-11595524D01*
X3950060Y-11795524D02*
X3950060Y-11662190D01*
X3950060Y-11681238D02*
X3959583Y-11671714D01*
X3959583Y-11671714D02*
X3978631Y-11662190D01*
X3978631Y-11662190D02*
X4007203Y-11662190D01*
X4007203Y-11662190D02*
X4026250Y-11671714D01*
X4026250Y-11671714D02*
X4035774Y-11690762D01*
X4035774Y-11690762D02*
X4035774Y-11795524D01*
X4035774Y-11690762D02*
X4045298Y-11671714D01*
X4045298Y-11671714D02*
X4064345Y-11662190D01*
X4064345Y-11662190D02*
X4092917Y-11662190D01*
X4092917Y-11662190D02*
X4111964Y-11671714D01*
X4111964Y-11671714D02*
X4121488Y-11690762D01*
X4121488Y-11690762D02*
X4121488Y-11795524D01*
X4216726Y-11795524D02*
X4216726Y-11662190D01*
X4216726Y-11681238D02*
X4226250Y-11671714D01*
X4226250Y-11671714D02*
X4245298Y-11662190D01*
X4245298Y-11662190D02*
X4273869Y-11662190D01*
X4273869Y-11662190D02*
X4292917Y-11671714D01*
X4292917Y-11671714D02*
X4302441Y-11690762D01*
X4302441Y-11690762D02*
X4302441Y-11795524D01*
X4302441Y-11690762D02*
X4311965Y-11671714D01*
X4311965Y-11671714D02*
X4331012Y-11662190D01*
X4331012Y-11662190D02*
X4359584Y-11662190D01*
X4359584Y-11662190D02*
X4378631Y-11671714D01*
X4378631Y-11671714D02*
X4388155Y-11690762D01*
X4388155Y-11690762D02*
X4388155Y-11795524D01*
X4778631Y-11586000D02*
X4607203Y-11843143D01*
X5035774Y-11595524D02*
X5054822Y-11595524D01*
X5054822Y-11595524D02*
X5073869Y-11605048D01*
X5073869Y-11605048D02*
X5083393Y-11614571D01*
X5083393Y-11614571D02*
X5092917Y-11633619D01*
X5092917Y-11633619D02*
X5102441Y-11671714D01*
X5102441Y-11671714D02*
X5102441Y-11719333D01*
X5102441Y-11719333D02*
X5092917Y-11757428D01*
X5092917Y-11757428D02*
X5083393Y-11776476D01*
X5083393Y-11776476D02*
X5073869Y-11786000D01*
X5073869Y-11786000D02*
X5054822Y-11795524D01*
X5054822Y-11795524D02*
X5035774Y-11795524D01*
X5035774Y-11795524D02*
X5016727Y-11786000D01*
X5016727Y-11786000D02*
X5007203Y-11776476D01*
X5007203Y-11776476D02*
X4997679Y-11757428D01*
X4997679Y-11757428D02*
X4988155Y-11719333D01*
X4988155Y-11719333D02*
X4988155Y-11671714D01*
X4988155Y-11671714D02*
X4997679Y-11633619D01*
X4997679Y-11633619D02*
X5007203Y-11614571D01*
X5007203Y-11614571D02*
X5016727Y-11605048D01*
X5016727Y-11605048D02*
X5035774Y-11595524D01*
X5188155Y-11776476D02*
X5197679Y-11786000D01*
X5197679Y-11786000D02*
X5188155Y-11795524D01*
X5188155Y-11795524D02*
X5178631Y-11786000D01*
X5178631Y-11786000D02*
X5188155Y-11776476D01*
X5188155Y-11776476D02*
X5188155Y-11795524D01*
X5321488Y-11595524D02*
X5340536Y-11595524D01*
X5340536Y-11595524D02*
X5359584Y-11605048D01*
X5359584Y-11605048D02*
X5369108Y-11614571D01*
X5369108Y-11614571D02*
X5378631Y-11633619D01*
X5378631Y-11633619D02*
X5388155Y-11671714D01*
X5388155Y-11671714D02*
X5388155Y-11719333D01*
X5388155Y-11719333D02*
X5378631Y-11757428D01*
X5378631Y-11757428D02*
X5369108Y-11776476D01*
X5369108Y-11776476D02*
X5359584Y-11786000D01*
X5359584Y-11786000D02*
X5340536Y-11795524D01*
X5340536Y-11795524D02*
X5321488Y-11795524D01*
X5321488Y-11795524D02*
X5302441Y-11786000D01*
X5302441Y-11786000D02*
X5292917Y-11776476D01*
X5292917Y-11776476D02*
X5283393Y-11757428D01*
X5283393Y-11757428D02*
X5273869Y-11719333D01*
X5273869Y-11719333D02*
X5273869Y-11671714D01*
X5273869Y-11671714D02*
X5283393Y-11633619D01*
X5283393Y-11633619D02*
X5292917Y-11614571D01*
X5292917Y-11614571D02*
X5302441Y-11605048D01*
X5302441Y-11605048D02*
X5321488Y-11595524D01*
X5464346Y-11614571D02*
X5473869Y-11605048D01*
X5473869Y-11605048D02*
X5492917Y-11595524D01*
X5492917Y-11595524D02*
X5540536Y-11595524D01*
X5540536Y-11595524D02*
X5559584Y-11605048D01*
X5559584Y-11605048D02*
X5569108Y-11614571D01*
X5569108Y-11614571D02*
X5578631Y-11633619D01*
X5578631Y-11633619D02*
X5578631Y-11652667D01*
X5578631Y-11652667D02*
X5569108Y-11681238D01*
X5569108Y-11681238D02*
X5454822Y-11795524D01*
X5454822Y-11795524D02*
X5578631Y-11795524D01*
X5645298Y-11595524D02*
X5769107Y-11595524D01*
X5769107Y-11595524D02*
X5702441Y-11671714D01*
X5702441Y-11671714D02*
X5731012Y-11671714D01*
X5731012Y-11671714D02*
X5750060Y-11681238D01*
X5750060Y-11681238D02*
X5759584Y-11690762D01*
X5759584Y-11690762D02*
X5769107Y-11709809D01*
X5769107Y-11709809D02*
X5769107Y-11757428D01*
X5769107Y-11757428D02*
X5759584Y-11776476D01*
X5759584Y-11776476D02*
X5750060Y-11786000D01*
X5750060Y-11786000D02*
X5731012Y-11795524D01*
X5731012Y-11795524D02*
X5673869Y-11795524D01*
X5673869Y-11795524D02*
X5654822Y-11786000D01*
X5654822Y-11786000D02*
X5645298Y-11776476D01*
X5940536Y-11595524D02*
X5902441Y-11595524D01*
X5902441Y-11595524D02*
X5883393Y-11605048D01*
X5883393Y-11605048D02*
X5873869Y-11614571D01*
X5873869Y-11614571D02*
X5854822Y-11643143D01*
X5854822Y-11643143D02*
X5845298Y-11681238D01*
X5845298Y-11681238D02*
X5845298Y-11757428D01*
X5845298Y-11757428D02*
X5854822Y-11776476D01*
X5854822Y-11776476D02*
X5864346Y-11786000D01*
X5864346Y-11786000D02*
X5883393Y-11795524D01*
X5883393Y-11795524D02*
X5921488Y-11795524D01*
X5921488Y-11795524D02*
X5940536Y-11786000D01*
X5940536Y-11786000D02*
X5950060Y-11776476D01*
X5950060Y-11776476D02*
X5959584Y-11757428D01*
X5959584Y-11757428D02*
X5959584Y-11709809D01*
X5959584Y-11709809D02*
X5950060Y-11690762D01*
X5950060Y-11690762D02*
X5940536Y-11681238D01*
X5940536Y-11681238D02*
X5921488Y-11671714D01*
X5921488Y-11671714D02*
X5883393Y-11671714D01*
X5883393Y-11671714D02*
X5864346Y-11681238D01*
X5864346Y-11681238D02*
X5854822Y-11690762D01*
X5854822Y-11690762D02*
X5845298Y-11709809D01*
X6035774Y-11595524D02*
X6035774Y-11633619D01*
X6111965Y-11595524D02*
X6111965Y-11633619D01*
X6407203Y-11871714D02*
X6397679Y-11862190D01*
X6397679Y-11862190D02*
X6378631Y-11833619D01*
X6378631Y-11833619D02*
X6369108Y-11814571D01*
X6369108Y-11814571D02*
X6359584Y-11786000D01*
X6359584Y-11786000D02*
X6350060Y-11738381D01*
X6350060Y-11738381D02*
X6350060Y-11700286D01*
X6350060Y-11700286D02*
X6359584Y-11652667D01*
X6359584Y-11652667D02*
X6369108Y-11624095D01*
X6369108Y-11624095D02*
X6378631Y-11605048D01*
X6378631Y-11605048D02*
X6397679Y-11576476D01*
X6397679Y-11576476D02*
X6407203Y-11566952D01*
X6521488Y-11595524D02*
X6540536Y-11595524D01*
X6540536Y-11595524D02*
X6559584Y-11605048D01*
X6559584Y-11605048D02*
X6569108Y-11614571D01*
X6569108Y-11614571D02*
X6578631Y-11633619D01*
X6578631Y-11633619D02*
X6588155Y-11671714D01*
X6588155Y-11671714D02*
X6588155Y-11719333D01*
X6588155Y-11719333D02*
X6578631Y-11757428D01*
X6578631Y-11757428D02*
X6569108Y-11776476D01*
X6569108Y-11776476D02*
X6559584Y-11786000D01*
X6559584Y-11786000D02*
X6540536Y-11795524D01*
X6540536Y-11795524D02*
X6521488Y-11795524D01*
X6521488Y-11795524D02*
X6502441Y-11786000D01*
X6502441Y-11786000D02*
X6492917Y-11776476D01*
X6492917Y-11776476D02*
X6483393Y-11757428D01*
X6483393Y-11757428D02*
X6473869Y-11719333D01*
X6473869Y-11719333D02*
X6473869Y-11671714D01*
X6473869Y-11671714D02*
X6483393Y-11633619D01*
X6483393Y-11633619D02*
X6492917Y-11614571D01*
X6492917Y-11614571D02*
X6502441Y-11605048D01*
X6502441Y-11605048D02*
X6521488Y-11595524D01*
X6826250Y-11795524D02*
X6826250Y-11595524D01*
X6911965Y-11795524D02*
X6911965Y-11690762D01*
X6911965Y-11690762D02*
X6902441Y-11671714D01*
X6902441Y-11671714D02*
X6883393Y-11662190D01*
X6883393Y-11662190D02*
X6854822Y-11662190D01*
X6854822Y-11662190D02*
X6835774Y-11671714D01*
X6835774Y-11671714D02*
X6826250Y-11681238D01*
X7035774Y-11795524D02*
X7016727Y-11786000D01*
X7016727Y-11786000D02*
X7007203Y-11776476D01*
X7007203Y-11776476D02*
X6997679Y-11757428D01*
X6997679Y-11757428D02*
X6997679Y-11700286D01*
X6997679Y-11700286D02*
X7007203Y-11681238D01*
X7007203Y-11681238D02*
X7016727Y-11671714D01*
X7016727Y-11671714D02*
X7035774Y-11662190D01*
X7035774Y-11662190D02*
X7064346Y-11662190D01*
X7064346Y-11662190D02*
X7083393Y-11671714D01*
X7083393Y-11671714D02*
X7092917Y-11681238D01*
X7092917Y-11681238D02*
X7102441Y-11700286D01*
X7102441Y-11700286D02*
X7102441Y-11757428D01*
X7102441Y-11757428D02*
X7092917Y-11776476D01*
X7092917Y-11776476D02*
X7083393Y-11786000D01*
X7083393Y-11786000D02*
X7064346Y-11795524D01*
X7064346Y-11795524D02*
X7035774Y-11795524D01*
X7216727Y-11795524D02*
X7197679Y-11786000D01*
X7197679Y-11786000D02*
X7188155Y-11766952D01*
X7188155Y-11766952D02*
X7188155Y-11595524D01*
X7369108Y-11786000D02*
X7350060Y-11795524D01*
X7350060Y-11795524D02*
X7311965Y-11795524D01*
X7311965Y-11795524D02*
X7292917Y-11786000D01*
X7292917Y-11786000D02*
X7283393Y-11766952D01*
X7283393Y-11766952D02*
X7283393Y-11690762D01*
X7283393Y-11690762D02*
X7292917Y-11671714D01*
X7292917Y-11671714D02*
X7311965Y-11662190D01*
X7311965Y-11662190D02*
X7350060Y-11662190D01*
X7350060Y-11662190D02*
X7369108Y-11671714D01*
X7369108Y-11671714D02*
X7378631Y-11690762D01*
X7378631Y-11690762D02*
X7378631Y-11709809D01*
X7378631Y-11709809D02*
X7283393Y-11728857D01*
X7454822Y-11786000D02*
X7473870Y-11795524D01*
X7473870Y-11795524D02*
X7511965Y-11795524D01*
X7511965Y-11795524D02*
X7531012Y-11786000D01*
X7531012Y-11786000D02*
X7540536Y-11766952D01*
X7540536Y-11766952D02*
X7540536Y-11757428D01*
X7540536Y-11757428D02*
X7531012Y-11738381D01*
X7531012Y-11738381D02*
X7511965Y-11728857D01*
X7511965Y-11728857D02*
X7483393Y-11728857D01*
X7483393Y-11728857D02*
X7464346Y-11719333D01*
X7464346Y-11719333D02*
X7454822Y-11700286D01*
X7454822Y-11700286D02*
X7454822Y-11690762D01*
X7454822Y-11690762D02*
X7464346Y-11671714D01*
X7464346Y-11671714D02*
X7483393Y-11662190D01*
X7483393Y-11662190D02*
X7511965Y-11662190D01*
X7511965Y-11662190D02*
X7531012Y-11671714D01*
X7778632Y-11719333D02*
X7931013Y-11719333D01*
X7854822Y-11795524D02*
X7854822Y-11643143D01*
X8264346Y-11662190D02*
X8264346Y-11795524D01*
X8216727Y-11586000D02*
X8169108Y-11728857D01*
X8169108Y-11728857D02*
X8292917Y-11728857D01*
X8511965Y-11786000D02*
X8531013Y-11795524D01*
X8531013Y-11795524D02*
X8569108Y-11795524D01*
X8569108Y-11795524D02*
X8588156Y-11786000D01*
X8588156Y-11786000D02*
X8597679Y-11766952D01*
X8597679Y-11766952D02*
X8597679Y-11757428D01*
X8597679Y-11757428D02*
X8588156Y-11738381D01*
X8588156Y-11738381D02*
X8569108Y-11728857D01*
X8569108Y-11728857D02*
X8540536Y-11728857D01*
X8540536Y-11728857D02*
X8521489Y-11719333D01*
X8521489Y-11719333D02*
X8511965Y-11700286D01*
X8511965Y-11700286D02*
X8511965Y-11690762D01*
X8511965Y-11690762D02*
X8521489Y-11671714D01*
X8521489Y-11671714D02*
X8540536Y-11662190D01*
X8540536Y-11662190D02*
X8569108Y-11662190D01*
X8569108Y-11662190D02*
X8588156Y-11671714D01*
X8711965Y-11795524D02*
X8692917Y-11786000D01*
X8692917Y-11786000D02*
X8683394Y-11766952D01*
X8683394Y-11766952D02*
X8683394Y-11595524D01*
X8816727Y-11795524D02*
X8797679Y-11786000D01*
X8797679Y-11786000D02*
X8788156Y-11776476D01*
X8788156Y-11776476D02*
X8778632Y-11757428D01*
X8778632Y-11757428D02*
X8778632Y-11700286D01*
X8778632Y-11700286D02*
X8788156Y-11681238D01*
X8788156Y-11681238D02*
X8797679Y-11671714D01*
X8797679Y-11671714D02*
X8816727Y-11662190D01*
X8816727Y-11662190D02*
X8845298Y-11662190D01*
X8845298Y-11662190D02*
X8864346Y-11671714D01*
X8864346Y-11671714D02*
X8873870Y-11681238D01*
X8873870Y-11681238D02*
X8883394Y-11700286D01*
X8883394Y-11700286D02*
X8883394Y-11757428D01*
X8883394Y-11757428D02*
X8873870Y-11776476D01*
X8873870Y-11776476D02*
X8864346Y-11786000D01*
X8864346Y-11786000D02*
X8845298Y-11795524D01*
X8845298Y-11795524D02*
X8816727Y-11795524D01*
X8940537Y-11662190D02*
X9016727Y-11662190D01*
X8969108Y-11595524D02*
X8969108Y-11766952D01*
X8969108Y-11766952D02*
X8978632Y-11786000D01*
X8978632Y-11786000D02*
X8997679Y-11795524D01*
X8997679Y-11795524D02*
X9016727Y-11795524D01*
X9073870Y-11786000D02*
X9092917Y-11795524D01*
X9092917Y-11795524D02*
X9131013Y-11795524D01*
X9131013Y-11795524D02*
X9150060Y-11786000D01*
X9150060Y-11786000D02*
X9159584Y-11766952D01*
X9159584Y-11766952D02*
X9159584Y-11757428D01*
X9159584Y-11757428D02*
X9150060Y-11738381D01*
X9150060Y-11738381D02*
X9131013Y-11728857D01*
X9131013Y-11728857D02*
X9102441Y-11728857D01*
X9102441Y-11728857D02*
X9083394Y-11719333D01*
X9083394Y-11719333D02*
X9073870Y-11700286D01*
X9073870Y-11700286D02*
X9073870Y-11690762D01*
X9073870Y-11690762D02*
X9083394Y-11671714D01*
X9083394Y-11671714D02*
X9102441Y-11662190D01*
X9102441Y-11662190D02*
X9131013Y-11662190D01*
X9131013Y-11662190D02*
X9150060Y-11671714D01*
X9226251Y-11871714D02*
X9235775Y-11862190D01*
X9235775Y-11862190D02*
X9254822Y-11833619D01*
X9254822Y-11833619D02*
X9264346Y-11814571D01*
X9264346Y-11814571D02*
X9273870Y-11786000D01*
X9273870Y-11786000D02*
X9283394Y-11738381D01*
X9283394Y-11738381D02*
X9283394Y-11700286D01*
X9283394Y-11700286D02*
X9273870Y-11652667D01*
X9273870Y-11652667D02*
X9264346Y-11624095D01*
X9264346Y-11624095D02*
X9254822Y-11605048D01*
X9254822Y-11605048D02*
X9235775Y-11576476D01*
X9235775Y-11576476D02*
X9226251Y-11566952D01*
D12*
X2782140Y-11918040D02*
X2782140Y-12018040D01*
X2732140Y-11968040D02*
X2832140Y-11968040D01*
D11*
X3197679Y-12059524D02*
X3083393Y-12059524D01*
X3140536Y-12059524D02*
X3140536Y-11859524D01*
X3140536Y-11859524D02*
X3121488Y-11888095D01*
X3121488Y-11888095D02*
X3102441Y-11907143D01*
X3102441Y-11907143D02*
X3083393Y-11916667D01*
X3283393Y-12040476D02*
X3292917Y-12050000D01*
X3292917Y-12050000D02*
X3283393Y-12059524D01*
X3283393Y-12059524D02*
X3273869Y-12050000D01*
X3273869Y-12050000D02*
X3283393Y-12040476D01*
X3283393Y-12040476D02*
X3283393Y-12059524D01*
X3416726Y-11859524D02*
X3435774Y-11859524D01*
X3435774Y-11859524D02*
X3454822Y-11869048D01*
X3454822Y-11869048D02*
X3464345Y-11878571D01*
X3464345Y-11878571D02*
X3473869Y-11897619D01*
X3473869Y-11897619D02*
X3483393Y-11935714D01*
X3483393Y-11935714D02*
X3483393Y-11983333D01*
X3483393Y-11983333D02*
X3473869Y-12021428D01*
X3473869Y-12021428D02*
X3464345Y-12040476D01*
X3464345Y-12040476D02*
X3454822Y-12050000D01*
X3454822Y-12050000D02*
X3435774Y-12059524D01*
X3435774Y-12059524D02*
X3416726Y-12059524D01*
X3416726Y-12059524D02*
X3397679Y-12050000D01*
X3397679Y-12050000D02*
X3388155Y-12040476D01*
X3388155Y-12040476D02*
X3378631Y-12021428D01*
X3378631Y-12021428D02*
X3369107Y-11983333D01*
X3369107Y-11983333D02*
X3369107Y-11935714D01*
X3369107Y-11935714D02*
X3378631Y-11897619D01*
X3378631Y-11897619D02*
X3388155Y-11878571D01*
X3388155Y-11878571D02*
X3397679Y-11869048D01*
X3397679Y-11869048D02*
X3416726Y-11859524D01*
X3607202Y-11859524D02*
X3626250Y-11859524D01*
X3626250Y-11859524D02*
X3645298Y-11869048D01*
X3645298Y-11869048D02*
X3654822Y-11878571D01*
X3654822Y-11878571D02*
X3664345Y-11897619D01*
X3664345Y-11897619D02*
X3673869Y-11935714D01*
X3673869Y-11935714D02*
X3673869Y-11983333D01*
X3673869Y-11983333D02*
X3664345Y-12021428D01*
X3664345Y-12021428D02*
X3654822Y-12040476D01*
X3654822Y-12040476D02*
X3645298Y-12050000D01*
X3645298Y-12050000D02*
X3626250Y-12059524D01*
X3626250Y-12059524D02*
X3607202Y-12059524D01*
X3607202Y-12059524D02*
X3588155Y-12050000D01*
X3588155Y-12050000D02*
X3578631Y-12040476D01*
X3578631Y-12040476D02*
X3569107Y-12021428D01*
X3569107Y-12021428D02*
X3559583Y-11983333D01*
X3559583Y-11983333D02*
X3559583Y-11935714D01*
X3559583Y-11935714D02*
X3569107Y-11897619D01*
X3569107Y-11897619D02*
X3578631Y-11878571D01*
X3578631Y-11878571D02*
X3588155Y-11869048D01*
X3588155Y-11869048D02*
X3607202Y-11859524D01*
X3797679Y-11859524D02*
X3816726Y-11859524D01*
X3816726Y-11859524D02*
X3835774Y-11869048D01*
X3835774Y-11869048D02*
X3845298Y-11878571D01*
X3845298Y-11878571D02*
X3854822Y-11897619D01*
X3854822Y-11897619D02*
X3864345Y-11935714D01*
X3864345Y-11935714D02*
X3864345Y-11983333D01*
X3864345Y-11983333D02*
X3854822Y-12021428D01*
X3854822Y-12021428D02*
X3845298Y-12040476D01*
X3845298Y-12040476D02*
X3835774Y-12050000D01*
X3835774Y-12050000D02*
X3816726Y-12059524D01*
X3816726Y-12059524D02*
X3797679Y-12059524D01*
X3797679Y-12059524D02*
X3778631Y-12050000D01*
X3778631Y-12050000D02*
X3769107Y-12040476D01*
X3769107Y-12040476D02*
X3759583Y-12021428D01*
X3759583Y-12021428D02*
X3750060Y-11983333D01*
X3750060Y-11983333D02*
X3750060Y-11935714D01*
X3750060Y-11935714D02*
X3759583Y-11897619D01*
X3759583Y-11897619D02*
X3769107Y-11878571D01*
X3769107Y-11878571D02*
X3778631Y-11869048D01*
X3778631Y-11869048D02*
X3797679Y-11859524D01*
X3950060Y-12059524D02*
X3950060Y-11926190D01*
X3950060Y-11945238D02*
X3959583Y-11935714D01*
X3959583Y-11935714D02*
X3978631Y-11926190D01*
X3978631Y-11926190D02*
X4007203Y-11926190D01*
X4007203Y-11926190D02*
X4026250Y-11935714D01*
X4026250Y-11935714D02*
X4035774Y-11954762D01*
X4035774Y-11954762D02*
X4035774Y-12059524D01*
X4035774Y-11954762D02*
X4045298Y-11935714D01*
X4045298Y-11935714D02*
X4064345Y-11926190D01*
X4064345Y-11926190D02*
X4092917Y-11926190D01*
X4092917Y-11926190D02*
X4111964Y-11935714D01*
X4111964Y-11935714D02*
X4121488Y-11954762D01*
X4121488Y-11954762D02*
X4121488Y-12059524D01*
X4216726Y-12059524D02*
X4216726Y-11926190D01*
X4216726Y-11945238D02*
X4226250Y-11935714D01*
X4226250Y-11935714D02*
X4245298Y-11926190D01*
X4245298Y-11926190D02*
X4273869Y-11926190D01*
X4273869Y-11926190D02*
X4292917Y-11935714D01*
X4292917Y-11935714D02*
X4302441Y-11954762D01*
X4302441Y-11954762D02*
X4302441Y-12059524D01*
X4302441Y-11954762D02*
X4311965Y-11935714D01*
X4311965Y-11935714D02*
X4331012Y-11926190D01*
X4331012Y-11926190D02*
X4359584Y-11926190D01*
X4359584Y-11926190D02*
X4378631Y-11935714D01*
X4378631Y-11935714D02*
X4388155Y-11954762D01*
X4388155Y-11954762D02*
X4388155Y-12059524D01*
X4778631Y-11850000D02*
X4607203Y-12107143D01*
X5035774Y-11859524D02*
X5054822Y-11859524D01*
X5054822Y-11859524D02*
X5073869Y-11869048D01*
X5073869Y-11869048D02*
X5083393Y-11878571D01*
X5083393Y-11878571D02*
X5092917Y-11897619D01*
X5092917Y-11897619D02*
X5102441Y-11935714D01*
X5102441Y-11935714D02*
X5102441Y-11983333D01*
X5102441Y-11983333D02*
X5092917Y-12021428D01*
X5092917Y-12021428D02*
X5083393Y-12040476D01*
X5083393Y-12040476D02*
X5073869Y-12050000D01*
X5073869Y-12050000D02*
X5054822Y-12059524D01*
X5054822Y-12059524D02*
X5035774Y-12059524D01*
X5035774Y-12059524D02*
X5016727Y-12050000D01*
X5016727Y-12050000D02*
X5007203Y-12040476D01*
X5007203Y-12040476D02*
X4997679Y-12021428D01*
X4997679Y-12021428D02*
X4988155Y-11983333D01*
X4988155Y-11983333D02*
X4988155Y-11935714D01*
X4988155Y-11935714D02*
X4997679Y-11897619D01*
X4997679Y-11897619D02*
X5007203Y-11878571D01*
X5007203Y-11878571D02*
X5016727Y-11869048D01*
X5016727Y-11869048D02*
X5035774Y-11859524D01*
X5188155Y-12040476D02*
X5197679Y-12050000D01*
X5197679Y-12050000D02*
X5188155Y-12059524D01*
X5188155Y-12059524D02*
X5178631Y-12050000D01*
X5178631Y-12050000D02*
X5188155Y-12040476D01*
X5188155Y-12040476D02*
X5188155Y-12059524D01*
X5321488Y-11859524D02*
X5340536Y-11859524D01*
X5340536Y-11859524D02*
X5359584Y-11869048D01*
X5359584Y-11869048D02*
X5369108Y-11878571D01*
X5369108Y-11878571D02*
X5378631Y-11897619D01*
X5378631Y-11897619D02*
X5388155Y-11935714D01*
X5388155Y-11935714D02*
X5388155Y-11983333D01*
X5388155Y-11983333D02*
X5378631Y-12021428D01*
X5378631Y-12021428D02*
X5369108Y-12040476D01*
X5369108Y-12040476D02*
X5359584Y-12050000D01*
X5359584Y-12050000D02*
X5340536Y-12059524D01*
X5340536Y-12059524D02*
X5321488Y-12059524D01*
X5321488Y-12059524D02*
X5302441Y-12050000D01*
X5302441Y-12050000D02*
X5292917Y-12040476D01*
X5292917Y-12040476D02*
X5283393Y-12021428D01*
X5283393Y-12021428D02*
X5273869Y-11983333D01*
X5273869Y-11983333D02*
X5273869Y-11935714D01*
X5273869Y-11935714D02*
X5283393Y-11897619D01*
X5283393Y-11897619D02*
X5292917Y-11878571D01*
X5292917Y-11878571D02*
X5302441Y-11869048D01*
X5302441Y-11869048D02*
X5321488Y-11859524D01*
X5454822Y-11859524D02*
X5578631Y-11859524D01*
X5578631Y-11859524D02*
X5511965Y-11935714D01*
X5511965Y-11935714D02*
X5540536Y-11935714D01*
X5540536Y-11935714D02*
X5559584Y-11945238D01*
X5559584Y-11945238D02*
X5569108Y-11954762D01*
X5569108Y-11954762D02*
X5578631Y-11973809D01*
X5578631Y-11973809D02*
X5578631Y-12021428D01*
X5578631Y-12021428D02*
X5569108Y-12040476D01*
X5569108Y-12040476D02*
X5559584Y-12050000D01*
X5559584Y-12050000D02*
X5540536Y-12059524D01*
X5540536Y-12059524D02*
X5483393Y-12059524D01*
X5483393Y-12059524D02*
X5464346Y-12050000D01*
X5464346Y-12050000D02*
X5454822Y-12040476D01*
X5673869Y-12059524D02*
X5711965Y-12059524D01*
X5711965Y-12059524D02*
X5731012Y-12050000D01*
X5731012Y-12050000D02*
X5740536Y-12040476D01*
X5740536Y-12040476D02*
X5759584Y-12011905D01*
X5759584Y-12011905D02*
X5769107Y-11973809D01*
X5769107Y-11973809D02*
X5769107Y-11897619D01*
X5769107Y-11897619D02*
X5759584Y-11878571D01*
X5759584Y-11878571D02*
X5750060Y-11869048D01*
X5750060Y-11869048D02*
X5731012Y-11859524D01*
X5731012Y-11859524D02*
X5692917Y-11859524D01*
X5692917Y-11859524D02*
X5673869Y-11869048D01*
X5673869Y-11869048D02*
X5664346Y-11878571D01*
X5664346Y-11878571D02*
X5654822Y-11897619D01*
X5654822Y-11897619D02*
X5654822Y-11945238D01*
X5654822Y-11945238D02*
X5664346Y-11964286D01*
X5664346Y-11964286D02*
X5673869Y-11973809D01*
X5673869Y-11973809D02*
X5692917Y-11983333D01*
X5692917Y-11983333D02*
X5731012Y-11983333D01*
X5731012Y-11983333D02*
X5750060Y-11973809D01*
X5750060Y-11973809D02*
X5759584Y-11964286D01*
X5759584Y-11964286D02*
X5769107Y-11945238D01*
X5940536Y-11926190D02*
X5940536Y-12059524D01*
X5892917Y-11850000D02*
X5845298Y-11992857D01*
X5845298Y-11992857D02*
X5969107Y-11992857D01*
X6035774Y-11859524D02*
X6035774Y-11897619D01*
X6111965Y-11859524D02*
X6111965Y-11897619D01*
X6407203Y-12135714D02*
X6397679Y-12126190D01*
X6397679Y-12126190D02*
X6378631Y-12097619D01*
X6378631Y-12097619D02*
X6369108Y-12078571D01*
X6369108Y-12078571D02*
X6359584Y-12050000D01*
X6359584Y-12050000D02*
X6350060Y-12002381D01*
X6350060Y-12002381D02*
X6350060Y-11964286D01*
X6350060Y-11964286D02*
X6359584Y-11916667D01*
X6359584Y-11916667D02*
X6369108Y-11888095D01*
X6369108Y-11888095D02*
X6378631Y-11869048D01*
X6378631Y-11869048D02*
X6397679Y-11840476D01*
X6397679Y-11840476D02*
X6407203Y-11830952D01*
X6569108Y-11926190D02*
X6569108Y-12059524D01*
X6521488Y-11850000D02*
X6473869Y-11992857D01*
X6473869Y-11992857D02*
X6597679Y-11992857D01*
X6826250Y-12059524D02*
X6826250Y-11859524D01*
X6911965Y-12059524D02*
X6911965Y-11954762D01*
X6911965Y-11954762D02*
X6902441Y-11935714D01*
X6902441Y-11935714D02*
X6883393Y-11926190D01*
X6883393Y-11926190D02*
X6854822Y-11926190D01*
X6854822Y-11926190D02*
X6835774Y-11935714D01*
X6835774Y-11935714D02*
X6826250Y-11945238D01*
X7035774Y-12059524D02*
X7016727Y-12050000D01*
X7016727Y-12050000D02*
X7007203Y-12040476D01*
X7007203Y-12040476D02*
X6997679Y-12021428D01*
X6997679Y-12021428D02*
X6997679Y-11964286D01*
X6997679Y-11964286D02*
X7007203Y-11945238D01*
X7007203Y-11945238D02*
X7016727Y-11935714D01*
X7016727Y-11935714D02*
X7035774Y-11926190D01*
X7035774Y-11926190D02*
X7064346Y-11926190D01*
X7064346Y-11926190D02*
X7083393Y-11935714D01*
X7083393Y-11935714D02*
X7092917Y-11945238D01*
X7092917Y-11945238D02*
X7102441Y-11964286D01*
X7102441Y-11964286D02*
X7102441Y-12021428D01*
X7102441Y-12021428D02*
X7092917Y-12040476D01*
X7092917Y-12040476D02*
X7083393Y-12050000D01*
X7083393Y-12050000D02*
X7064346Y-12059524D01*
X7064346Y-12059524D02*
X7035774Y-12059524D01*
X7216727Y-12059524D02*
X7197679Y-12050000D01*
X7197679Y-12050000D02*
X7188155Y-12030952D01*
X7188155Y-12030952D02*
X7188155Y-11859524D01*
X7369108Y-12050000D02*
X7350060Y-12059524D01*
X7350060Y-12059524D02*
X7311965Y-12059524D01*
X7311965Y-12059524D02*
X7292917Y-12050000D01*
X7292917Y-12050000D02*
X7283393Y-12030952D01*
X7283393Y-12030952D02*
X7283393Y-11954762D01*
X7283393Y-11954762D02*
X7292917Y-11935714D01*
X7292917Y-11935714D02*
X7311965Y-11926190D01*
X7311965Y-11926190D02*
X7350060Y-11926190D01*
X7350060Y-11926190D02*
X7369108Y-11935714D01*
X7369108Y-11935714D02*
X7378631Y-11954762D01*
X7378631Y-11954762D02*
X7378631Y-11973809D01*
X7378631Y-11973809D02*
X7283393Y-11992857D01*
X7454822Y-12050000D02*
X7473870Y-12059524D01*
X7473870Y-12059524D02*
X7511965Y-12059524D01*
X7511965Y-12059524D02*
X7531012Y-12050000D01*
X7531012Y-12050000D02*
X7540536Y-12030952D01*
X7540536Y-12030952D02*
X7540536Y-12021428D01*
X7540536Y-12021428D02*
X7531012Y-12002381D01*
X7531012Y-12002381D02*
X7511965Y-11992857D01*
X7511965Y-11992857D02*
X7483393Y-11992857D01*
X7483393Y-11992857D02*
X7464346Y-11983333D01*
X7464346Y-11983333D02*
X7454822Y-11964286D01*
X7454822Y-11964286D02*
X7454822Y-11954762D01*
X7454822Y-11954762D02*
X7464346Y-11935714D01*
X7464346Y-11935714D02*
X7483393Y-11926190D01*
X7483393Y-11926190D02*
X7511965Y-11926190D01*
X7511965Y-11926190D02*
X7531012Y-11935714D01*
X7607203Y-12135714D02*
X7616727Y-12126190D01*
X7616727Y-12126190D02*
X7635774Y-12097619D01*
X7635774Y-12097619D02*
X7645298Y-12078571D01*
X7645298Y-12078571D02*
X7654822Y-12050000D01*
X7654822Y-12050000D02*
X7664346Y-12002381D01*
X7664346Y-12002381D02*
X7664346Y-11964286D01*
X7664346Y-11964286D02*
X7654822Y-11916667D01*
X7654822Y-11916667D02*
X7645298Y-11888095D01*
X7645298Y-11888095D02*
X7635774Y-11869048D01*
X7635774Y-11869048D02*
X7616727Y-11840476D01*
X7616727Y-11840476D02*
X7607203Y-11830952D01*
M02*
