%TF.GenerationSoftware,KiCad,Pcbnew,8.0.6*%
%TF.CreationDate,2025-05-14T20:02:39-04:00*%
%TF.ProjectId,touch_volume_controller,746f7563-685f-4766-9f6c-756d655f636f,rev?*%
%TF.SameCoordinates,Original*%
%TF.FileFunction,Copper,L2,Bot*%
%TF.FilePolarity,Positive*%
%FSLAX46Y46*%
G04 Gerber Fmt 4.6, Leading zero omitted, Abs format (unit mm)*
G04 Created by KiCad (PCBNEW 8.0.6) date 2025-05-14 20:02:39*
%MOMM*%
%LPD*%
G01*
G04 APERTURE LIST*
%TA.AperFunction,ComponentPad*%
%ADD10O,1.000000X2.100000*%
%TD*%
%TA.AperFunction,ComponentPad*%
%ADD11O,1.000000X1.600000*%
%TD*%
%TA.AperFunction,ComponentPad*%
%ADD12R,1.700000X1.700000*%
%TD*%
%TA.AperFunction,ComponentPad*%
%ADD13O,1.700000X1.700000*%
%TD*%
%TA.AperFunction,ViaPad*%
%ADD14C,0.600000*%
%TD*%
%TA.AperFunction,Conductor*%
%ADD15C,0.200000*%
%TD*%
G04 APERTURE END LIST*
D10*
%TO.P,J1,S1,SHIELD*%
%TO.N,GND*%
X46433200Y-56571600D03*
D11*
X46433200Y-52391600D03*
D10*
X37793200Y-56571600D03*
D11*
X37793200Y-52391600D03*
%TD*%
D12*
%TO.P,J2,1,Pin_1*%
%TO.N,GND*%
X30962200Y-56525000D03*
D13*
%TO.P,J2,2,Pin_2*%
%TO.N,/+3.3V*%
X30962200Y-59065000D03*
%TO.P,J2,3,Pin_3*%
%TO.N,Net-(J2-Pin_3)*%
X30962200Y-61605000D03*
%TO.P,J2,4,Pin_4*%
%TO.N,Net-(J2-Pin_4)*%
X30962200Y-64145000D03*
%TD*%
D14*
%TO.N,GND*%
X53898800Y-58623200D03*
X40919400Y-72542400D03*
X47509465Y-79719135D03*
X42173600Y-80932900D03*
%TO.N,/+3.3V*%
X46948600Y-79119135D03*
X47066200Y-81889600D03*
%TO.N,/PWM_OUT*%
X37572835Y-85934435D03*
X36871450Y-79286952D03*
%TO.N,/SDA*%
X36906200Y-80086200D03*
X32943800Y-76581000D03*
%TO.N,/SCL*%
X36931600Y-80899000D03*
X31228087Y-79488087D03*
%TD*%
D15*
%TO.N,GND*%
X47509465Y-79719135D02*
X46442475Y-79719135D01*
X46442475Y-79719135D02*
X45228710Y-80932900D01*
X40919400Y-71602600D02*
X40919400Y-72542400D01*
X53898800Y-58623200D02*
X40919400Y-71602600D01*
X45228710Y-80932900D02*
X42173600Y-80932900D01*
%TO.N,/+3.3V*%
X46948600Y-79119135D02*
X47757994Y-79119135D01*
X48109465Y-79470606D02*
X48109465Y-80846335D01*
X48109465Y-80846335D02*
X47066200Y-81889600D01*
X47757994Y-79119135D02*
X48109465Y-79470606D01*
%TO.N,/PWM_OUT*%
X37572835Y-85934435D02*
X37572835Y-79904306D01*
X36955481Y-79286952D02*
X36871450Y-79286952D01*
X37572835Y-79904306D02*
X36955481Y-79286952D01*
%TO.N,/SDA*%
X32943800Y-76581000D02*
X36449000Y-80086200D01*
X36449000Y-80086200D02*
X36906200Y-80086200D01*
%TO.N,/SCL*%
X32639000Y-80899000D02*
X36931600Y-80899000D01*
X31228087Y-79488087D02*
X32639000Y-80899000D01*
%TD*%
M02*
