M48
; DRILL file {KiCad 8.0.6} date 2025-05-14T20:02:42-0400
; FORMAT={-:-/ absolute / metric / decimal}
; #@! TF.CreationDate,2025-05-14T20:02:42-04:00
; #@! TF.GenerationSoftware,Kicad,Pcbnew,8.0.6
; #@! TF.FileFunction,Plated,1,2,PTH
FMAT,2
METRIC
; #@! TA.AperFunction,Plated,PTH,ViaDrill
T1C0.300
; #@! TA.AperFunction,Plated,PTH,ComponentDrill
T2C0.600
; #@! TA.AperFunction,Plated,PTH,ComponentDrill
T3C1.000
%
G90
G05
T1
X31.228Y-79.488
X32.944Y-76.581
X36.871Y-79.287
X36.906Y-80.086
X36.932Y-80.899
X37.573Y-85.934
X40.919Y-72.542
X42.174Y-80.933
X46.949Y-79.119
X47.066Y-81.89
X47.509Y-79.719
X53.899Y-58.623
T3
X30.962Y-56.525
X30.962Y-59.065
X30.962Y-61.605
X30.962Y-64.145
T2
G00X37.793Y-52.692
M15
G01X37.793Y-52.092
M16
G05
G00X37.793Y-57.122
M15
G01X37.793Y-56.022
M16
G05
G00X46.433Y-52.692
M15
G01X46.433Y-52.092
M16
G05
G00X46.433Y-57.122
M15
G01X46.433Y-56.022
M16
G05
M30
