%TF.GenerationSoftware,KiCad,Pcbnew,8.0.6*%
%TF.CreationDate,2025-05-14T20:02:39-04:00*%
%TF.ProjectId,touch_volume_controller,746f7563-685f-4766-9f6c-756d655f636f,rev?*%
%TF.SameCoordinates,Original*%
%TF.FileFunction,Legend,Top*%
%TF.FilePolarity,Positive*%
%FSLAX46Y46*%
G04 Gerber Fmt 4.6, Leading zero omitted, Abs format (unit mm)*
G04 Created by KiCad (PCBNEW 8.0.6) date 2025-05-14 20:02:39*
%MOMM*%
%LPD*%
G01*
G04 APERTURE LIST*
%ADD10C,0.100000*%
%ADD11C,0.150000*%
%ADD12C,0.120000*%
G04 APERTURE END LIST*
D10*
X46204865Y-74710160D02*
X46681055Y-74710160D01*
X46109627Y-74995875D02*
X46442960Y-73995875D01*
X46442960Y-73995875D02*
X46776293Y-74995875D01*
X47109627Y-74995875D02*
X47109627Y-73995875D01*
X47204865Y-74614922D02*
X47490579Y-74995875D01*
X47490579Y-74329208D02*
X47109627Y-74710160D01*
X47919151Y-74995875D02*
X47919151Y-74329208D01*
X47919151Y-74424446D02*
X47966770Y-74376827D01*
X47966770Y-74376827D02*
X48062008Y-74329208D01*
X48062008Y-74329208D02*
X48204865Y-74329208D01*
X48204865Y-74329208D02*
X48300103Y-74376827D01*
X48300103Y-74376827D02*
X48347722Y-74472065D01*
X48347722Y-74472065D02*
X48347722Y-74995875D01*
X48347722Y-74472065D02*
X48395341Y-74376827D01*
X48395341Y-74376827D02*
X48490579Y-74329208D01*
X48490579Y-74329208D02*
X48633436Y-74329208D01*
X48633436Y-74329208D02*
X48728675Y-74376827D01*
X48728675Y-74376827D02*
X48776294Y-74472065D01*
X48776294Y-74472065D02*
X48776294Y-74995875D01*
X49681055Y-74995875D02*
X49681055Y-74472065D01*
X49681055Y-74472065D02*
X49633436Y-74376827D01*
X49633436Y-74376827D02*
X49538198Y-74329208D01*
X49538198Y-74329208D02*
X49347722Y-74329208D01*
X49347722Y-74329208D02*
X49252484Y-74376827D01*
X49681055Y-74948256D02*
X49585817Y-74995875D01*
X49585817Y-74995875D02*
X49347722Y-74995875D01*
X49347722Y-74995875D02*
X49252484Y-74948256D01*
X49252484Y-74948256D02*
X49204865Y-74853017D01*
X49204865Y-74853017D02*
X49204865Y-74757779D01*
X49204865Y-74757779D02*
X49252484Y-74662541D01*
X49252484Y-74662541D02*
X49347722Y-74614922D01*
X49347722Y-74614922D02*
X49585817Y-74614922D01*
X49585817Y-74614922D02*
X49681055Y-74567303D01*
X50300103Y-74995875D02*
X50204865Y-74948256D01*
X50204865Y-74948256D02*
X50157246Y-74853017D01*
X50157246Y-74853017D02*
X50157246Y-73995875D01*
X51442961Y-74995875D02*
X51442961Y-73995875D01*
X51442961Y-73995875D02*
X52014389Y-74995875D01*
X52014389Y-74995875D02*
X52014389Y-73995875D01*
X52919151Y-74995875D02*
X52919151Y-74472065D01*
X52919151Y-74472065D02*
X52871532Y-74376827D01*
X52871532Y-74376827D02*
X52776294Y-74329208D01*
X52776294Y-74329208D02*
X52585818Y-74329208D01*
X52585818Y-74329208D02*
X52490580Y-74376827D01*
X52919151Y-74948256D02*
X52823913Y-74995875D01*
X52823913Y-74995875D02*
X52585818Y-74995875D01*
X52585818Y-74995875D02*
X52490580Y-74948256D01*
X52490580Y-74948256D02*
X52442961Y-74853017D01*
X52442961Y-74853017D02*
X52442961Y-74757779D01*
X52442961Y-74757779D02*
X52490580Y-74662541D01*
X52490580Y-74662541D02*
X52585818Y-74614922D01*
X52585818Y-74614922D02*
X52823913Y-74614922D01*
X52823913Y-74614922D02*
X52919151Y-74567303D01*
X53300104Y-74329208D02*
X53823913Y-74329208D01*
X53823913Y-74329208D02*
X53300104Y-74995875D01*
X53300104Y-74995875D02*
X53823913Y-74995875D01*
X54204866Y-74995875D02*
X54204866Y-74329208D01*
X54204866Y-73995875D02*
X54157247Y-74043494D01*
X54157247Y-74043494D02*
X54204866Y-74091113D01*
X54204866Y-74091113D02*
X54252485Y-74043494D01*
X54252485Y-74043494D02*
X54204866Y-73995875D01*
X54204866Y-73995875D02*
X54204866Y-74091113D01*
X54681056Y-74995875D02*
X54681056Y-74329208D01*
X54681056Y-74519684D02*
X54728675Y-74424446D01*
X54728675Y-74424446D02*
X54776294Y-74376827D01*
X54776294Y-74376827D02*
X54871532Y-74329208D01*
X54871532Y-74329208D02*
X54966770Y-74329208D01*
X46252484Y-76605819D02*
X46252484Y-75605819D01*
X46252484Y-75605819D02*
X46585817Y-76320104D01*
X46585817Y-76320104D02*
X46919150Y-75605819D01*
X46919150Y-75605819D02*
X46919150Y-76605819D01*
X47823912Y-76605819D02*
X47823912Y-76082009D01*
X47823912Y-76082009D02*
X47776293Y-75986771D01*
X47776293Y-75986771D02*
X47681055Y-75939152D01*
X47681055Y-75939152D02*
X47490579Y-75939152D01*
X47490579Y-75939152D02*
X47395341Y-75986771D01*
X47823912Y-76558200D02*
X47728674Y-76605819D01*
X47728674Y-76605819D02*
X47490579Y-76605819D01*
X47490579Y-76605819D02*
X47395341Y-76558200D01*
X47395341Y-76558200D02*
X47347722Y-76462961D01*
X47347722Y-76462961D02*
X47347722Y-76367723D01*
X47347722Y-76367723D02*
X47395341Y-76272485D01*
X47395341Y-76272485D02*
X47490579Y-76224866D01*
X47490579Y-76224866D02*
X47728674Y-76224866D01*
X47728674Y-76224866D02*
X47823912Y-76177247D01*
X48204865Y-75939152D02*
X48442960Y-76605819D01*
X48681055Y-75939152D02*
X48442960Y-76605819D01*
X48442960Y-76605819D02*
X48347722Y-76843914D01*
X48347722Y-76843914D02*
X48300103Y-76891533D01*
X48300103Y-76891533D02*
X48204865Y-76939152D01*
X49776294Y-75701057D02*
X49823913Y-75653438D01*
X49823913Y-75653438D02*
X49919151Y-75605819D01*
X49919151Y-75605819D02*
X50157246Y-75605819D01*
X50157246Y-75605819D02*
X50252484Y-75653438D01*
X50252484Y-75653438D02*
X50300103Y-75701057D01*
X50300103Y-75701057D02*
X50347722Y-75796295D01*
X50347722Y-75796295D02*
X50347722Y-75891533D01*
X50347722Y-75891533D02*
X50300103Y-76034390D01*
X50300103Y-76034390D02*
X49728675Y-76605819D01*
X49728675Y-76605819D02*
X50347722Y-76605819D01*
X50966770Y-75605819D02*
X51062008Y-75605819D01*
X51062008Y-75605819D02*
X51157246Y-75653438D01*
X51157246Y-75653438D02*
X51204865Y-75701057D01*
X51204865Y-75701057D02*
X51252484Y-75796295D01*
X51252484Y-75796295D02*
X51300103Y-75986771D01*
X51300103Y-75986771D02*
X51300103Y-76224866D01*
X51300103Y-76224866D02*
X51252484Y-76415342D01*
X51252484Y-76415342D02*
X51204865Y-76510580D01*
X51204865Y-76510580D02*
X51157246Y-76558200D01*
X51157246Y-76558200D02*
X51062008Y-76605819D01*
X51062008Y-76605819D02*
X50966770Y-76605819D01*
X50966770Y-76605819D02*
X50871532Y-76558200D01*
X50871532Y-76558200D02*
X50823913Y-76510580D01*
X50823913Y-76510580D02*
X50776294Y-76415342D01*
X50776294Y-76415342D02*
X50728675Y-76224866D01*
X50728675Y-76224866D02*
X50728675Y-75986771D01*
X50728675Y-75986771D02*
X50776294Y-75796295D01*
X50776294Y-75796295D02*
X50823913Y-75701057D01*
X50823913Y-75701057D02*
X50871532Y-75653438D01*
X50871532Y-75653438D02*
X50966770Y-75605819D01*
X51681056Y-75701057D02*
X51728675Y-75653438D01*
X51728675Y-75653438D02*
X51823913Y-75605819D01*
X51823913Y-75605819D02*
X52062008Y-75605819D01*
X52062008Y-75605819D02*
X52157246Y-75653438D01*
X52157246Y-75653438D02*
X52204865Y-75701057D01*
X52204865Y-75701057D02*
X52252484Y-75796295D01*
X52252484Y-75796295D02*
X52252484Y-75891533D01*
X52252484Y-75891533D02*
X52204865Y-76034390D01*
X52204865Y-76034390D02*
X51633437Y-76605819D01*
X51633437Y-76605819D02*
X52252484Y-76605819D01*
X53157246Y-75605819D02*
X52681056Y-75605819D01*
X52681056Y-75605819D02*
X52633437Y-76082009D01*
X52633437Y-76082009D02*
X52681056Y-76034390D01*
X52681056Y-76034390D02*
X52776294Y-75986771D01*
X52776294Y-75986771D02*
X53014389Y-75986771D01*
X53014389Y-75986771D02*
X53109627Y-76034390D01*
X53109627Y-76034390D02*
X53157246Y-76082009D01*
X53157246Y-76082009D02*
X53204865Y-76177247D01*
X53204865Y-76177247D02*
X53204865Y-76415342D01*
X53204865Y-76415342D02*
X53157246Y-76510580D01*
X53157246Y-76510580D02*
X53109627Y-76558200D01*
X53109627Y-76558200D02*
X53014389Y-76605819D01*
X53014389Y-76605819D02*
X52776294Y-76605819D01*
X52776294Y-76605819D02*
X52681056Y-76558200D01*
X52681056Y-76558200D02*
X52633437Y-76510580D01*
D11*
X30795933Y-69205019D02*
X30462600Y-68728828D01*
X30224505Y-69205019D02*
X30224505Y-68205019D01*
X30224505Y-68205019D02*
X30605457Y-68205019D01*
X30605457Y-68205019D02*
X30700695Y-68252638D01*
X30700695Y-68252638D02*
X30748314Y-68300257D01*
X30748314Y-68300257D02*
X30795933Y-68395495D01*
X30795933Y-68395495D02*
X30795933Y-68538352D01*
X30795933Y-68538352D02*
X30748314Y-68633590D01*
X30748314Y-68633590D02*
X30700695Y-68681209D01*
X30700695Y-68681209D02*
X30605457Y-68728828D01*
X30605457Y-68728828D02*
X30224505Y-68728828D01*
X31653076Y-68538352D02*
X31653076Y-69205019D01*
X31414981Y-68157400D02*
X31176886Y-68871685D01*
X31176886Y-68871685D02*
X31795933Y-68871685D01*
X34072533Y-78253780D02*
X34024914Y-78301400D01*
X34024914Y-78301400D02*
X33882057Y-78349019D01*
X33882057Y-78349019D02*
X33786819Y-78349019D01*
X33786819Y-78349019D02*
X33643962Y-78301400D01*
X33643962Y-78301400D02*
X33548724Y-78206161D01*
X33548724Y-78206161D02*
X33501105Y-78110923D01*
X33501105Y-78110923D02*
X33453486Y-77920447D01*
X33453486Y-77920447D02*
X33453486Y-77777590D01*
X33453486Y-77777590D02*
X33501105Y-77587114D01*
X33501105Y-77587114D02*
X33548724Y-77491876D01*
X33548724Y-77491876D02*
X33643962Y-77396638D01*
X33643962Y-77396638D02*
X33786819Y-77349019D01*
X33786819Y-77349019D02*
X33882057Y-77349019D01*
X33882057Y-77349019D02*
X34024914Y-77396638D01*
X34024914Y-77396638D02*
X34072533Y-77444257D01*
X34405867Y-77349019D02*
X35024914Y-77349019D01*
X35024914Y-77349019D02*
X34691581Y-77729971D01*
X34691581Y-77729971D02*
X34834438Y-77729971D01*
X34834438Y-77729971D02*
X34929676Y-77777590D01*
X34929676Y-77777590D02*
X34977295Y-77825209D01*
X34977295Y-77825209D02*
X35024914Y-77920447D01*
X35024914Y-77920447D02*
X35024914Y-78158542D01*
X35024914Y-78158542D02*
X34977295Y-78253780D01*
X34977295Y-78253780D02*
X34929676Y-78301400D01*
X34929676Y-78301400D02*
X34834438Y-78349019D01*
X34834438Y-78349019D02*
X34548724Y-78349019D01*
X34548724Y-78349019D02*
X34453486Y-78301400D01*
X34453486Y-78301400D02*
X34405867Y-78253780D01*
X42051209Y-92407228D02*
X42051209Y-92883419D01*
X41717876Y-91883419D02*
X42051209Y-92407228D01*
X42051209Y-92407228D02*
X42384542Y-91883419D01*
X43241685Y-92883419D02*
X42670257Y-92883419D01*
X42955971Y-92883419D02*
X42955971Y-91883419D01*
X42955971Y-91883419D02*
X42860733Y-92026276D01*
X42860733Y-92026276D02*
X42765495Y-92121514D01*
X42765495Y-92121514D02*
X42670257Y-92169133D01*
X31532533Y-96586219D02*
X31199200Y-96110028D01*
X30961105Y-96586219D02*
X30961105Y-95586219D01*
X30961105Y-95586219D02*
X31342057Y-95586219D01*
X31342057Y-95586219D02*
X31437295Y-95633838D01*
X31437295Y-95633838D02*
X31484914Y-95681457D01*
X31484914Y-95681457D02*
X31532533Y-95776695D01*
X31532533Y-95776695D02*
X31532533Y-95919552D01*
X31532533Y-95919552D02*
X31484914Y-96014790D01*
X31484914Y-96014790D02*
X31437295Y-96062409D01*
X31437295Y-96062409D02*
X31342057Y-96110028D01*
X31342057Y-96110028D02*
X30961105Y-96110028D01*
X31913486Y-95681457D02*
X31961105Y-95633838D01*
X31961105Y-95633838D02*
X32056343Y-95586219D01*
X32056343Y-95586219D02*
X32294438Y-95586219D01*
X32294438Y-95586219D02*
X32389676Y-95633838D01*
X32389676Y-95633838D02*
X32437295Y-95681457D01*
X32437295Y-95681457D02*
X32484914Y-95776695D01*
X32484914Y-95776695D02*
X32484914Y-95871933D01*
X32484914Y-95871933D02*
X32437295Y-96014790D01*
X32437295Y-96014790D02*
X31865867Y-96586219D01*
X31865867Y-96586219D02*
X32484914Y-96586219D01*
X33437533Y-49805780D02*
X33389914Y-49853400D01*
X33389914Y-49853400D02*
X33247057Y-49901019D01*
X33247057Y-49901019D02*
X33151819Y-49901019D01*
X33151819Y-49901019D02*
X33008962Y-49853400D01*
X33008962Y-49853400D02*
X32913724Y-49758161D01*
X32913724Y-49758161D02*
X32866105Y-49662923D01*
X32866105Y-49662923D02*
X32818486Y-49472447D01*
X32818486Y-49472447D02*
X32818486Y-49329590D01*
X32818486Y-49329590D02*
X32866105Y-49139114D01*
X32866105Y-49139114D02*
X32913724Y-49043876D01*
X32913724Y-49043876D02*
X33008962Y-48948638D01*
X33008962Y-48948638D02*
X33151819Y-48901019D01*
X33151819Y-48901019D02*
X33247057Y-48901019D01*
X33247057Y-48901019D02*
X33389914Y-48948638D01*
X33389914Y-48948638D02*
X33437533Y-48996257D01*
X34389914Y-49901019D02*
X33818486Y-49901019D01*
X34104200Y-49901019D02*
X34104200Y-48901019D01*
X34104200Y-48901019D02*
X34008962Y-49043876D01*
X34008962Y-49043876D02*
X33913724Y-49139114D01*
X33913724Y-49139114D02*
X33818486Y-49186733D01*
X39609733Y-102573380D02*
X39562114Y-102621000D01*
X39562114Y-102621000D02*
X39419257Y-102668619D01*
X39419257Y-102668619D02*
X39324019Y-102668619D01*
X39324019Y-102668619D02*
X39181162Y-102621000D01*
X39181162Y-102621000D02*
X39085924Y-102525761D01*
X39085924Y-102525761D02*
X39038305Y-102430523D01*
X39038305Y-102430523D02*
X38990686Y-102240047D01*
X38990686Y-102240047D02*
X38990686Y-102097190D01*
X38990686Y-102097190D02*
X39038305Y-101906714D01*
X39038305Y-101906714D02*
X39085924Y-101811476D01*
X39085924Y-101811476D02*
X39181162Y-101716238D01*
X39181162Y-101716238D02*
X39324019Y-101668619D01*
X39324019Y-101668619D02*
X39419257Y-101668619D01*
X39419257Y-101668619D02*
X39562114Y-101716238D01*
X39562114Y-101716238D02*
X39609733Y-101763857D01*
X40514495Y-101668619D02*
X40038305Y-101668619D01*
X40038305Y-101668619D02*
X39990686Y-102144809D01*
X39990686Y-102144809D02*
X40038305Y-102097190D01*
X40038305Y-102097190D02*
X40133543Y-102049571D01*
X40133543Y-102049571D02*
X40371638Y-102049571D01*
X40371638Y-102049571D02*
X40466876Y-102097190D01*
X40466876Y-102097190D02*
X40514495Y-102144809D01*
X40514495Y-102144809D02*
X40562114Y-102240047D01*
X40562114Y-102240047D02*
X40562114Y-102478142D01*
X40562114Y-102478142D02*
X40514495Y-102573380D01*
X40514495Y-102573380D02*
X40466876Y-102621000D01*
X40466876Y-102621000D02*
X40371638Y-102668619D01*
X40371638Y-102668619D02*
X40133543Y-102668619D01*
X40133543Y-102668619D02*
X40038305Y-102621000D01*
X40038305Y-102621000D02*
X39990686Y-102573380D01*
X43026105Y-67013619D02*
X43026105Y-66013619D01*
X43026105Y-66013619D02*
X43264200Y-66013619D01*
X43264200Y-66013619D02*
X43407057Y-66061238D01*
X43407057Y-66061238D02*
X43502295Y-66156476D01*
X43502295Y-66156476D02*
X43549914Y-66251714D01*
X43549914Y-66251714D02*
X43597533Y-66442190D01*
X43597533Y-66442190D02*
X43597533Y-66585047D01*
X43597533Y-66585047D02*
X43549914Y-66775523D01*
X43549914Y-66775523D02*
X43502295Y-66870761D01*
X43502295Y-66870761D02*
X43407057Y-66966000D01*
X43407057Y-66966000D02*
X43264200Y-67013619D01*
X43264200Y-67013619D02*
X43026105Y-67013619D01*
X44549914Y-67013619D02*
X43978486Y-67013619D01*
X44264200Y-67013619D02*
X44264200Y-66013619D01*
X44264200Y-66013619D02*
X44168962Y-66156476D01*
X44168962Y-66156476D02*
X44073724Y-66251714D01*
X44073724Y-66251714D02*
X43978486Y-66299333D01*
X51547733Y-93817619D02*
X51214400Y-93341428D01*
X50976305Y-93817619D02*
X50976305Y-92817619D01*
X50976305Y-92817619D02*
X51357257Y-92817619D01*
X51357257Y-92817619D02*
X51452495Y-92865238D01*
X51452495Y-92865238D02*
X51500114Y-92912857D01*
X51500114Y-92912857D02*
X51547733Y-93008095D01*
X51547733Y-93008095D02*
X51547733Y-93150952D01*
X51547733Y-93150952D02*
X51500114Y-93246190D01*
X51500114Y-93246190D02*
X51452495Y-93293809D01*
X51452495Y-93293809D02*
X51357257Y-93341428D01*
X51357257Y-93341428D02*
X50976305Y-93341428D01*
X51881067Y-92817619D02*
X52500114Y-92817619D01*
X52500114Y-92817619D02*
X52166781Y-93198571D01*
X52166781Y-93198571D02*
X52309638Y-93198571D01*
X52309638Y-93198571D02*
X52404876Y-93246190D01*
X52404876Y-93246190D02*
X52452495Y-93293809D01*
X52452495Y-93293809D02*
X52500114Y-93389047D01*
X52500114Y-93389047D02*
X52500114Y-93627142D01*
X52500114Y-93627142D02*
X52452495Y-93722380D01*
X52452495Y-93722380D02*
X52404876Y-93770000D01*
X52404876Y-93770000D02*
X52309638Y-93817619D01*
X52309638Y-93817619D02*
X52023924Y-93817619D01*
X52023924Y-93817619D02*
X51928686Y-93770000D01*
X51928686Y-93770000D02*
X51881067Y-93722380D01*
X49871333Y-85257819D02*
X49538000Y-84781628D01*
X49299905Y-85257819D02*
X49299905Y-84257819D01*
X49299905Y-84257819D02*
X49680857Y-84257819D01*
X49680857Y-84257819D02*
X49776095Y-84305438D01*
X49776095Y-84305438D02*
X49823714Y-84353057D01*
X49823714Y-84353057D02*
X49871333Y-84448295D01*
X49871333Y-84448295D02*
X49871333Y-84591152D01*
X49871333Y-84591152D02*
X49823714Y-84686390D01*
X49823714Y-84686390D02*
X49776095Y-84734009D01*
X49776095Y-84734009D02*
X49680857Y-84781628D01*
X49680857Y-84781628D02*
X49299905Y-84781628D01*
X50823714Y-85257819D02*
X50252286Y-85257819D01*
X50538000Y-85257819D02*
X50538000Y-84257819D01*
X50538000Y-84257819D02*
X50442762Y-84400676D01*
X50442762Y-84400676D02*
X50347524Y-84495914D01*
X50347524Y-84495914D02*
X50252286Y-84543533D01*
X49871333Y-79650780D02*
X49823714Y-79698400D01*
X49823714Y-79698400D02*
X49680857Y-79746019D01*
X49680857Y-79746019D02*
X49585619Y-79746019D01*
X49585619Y-79746019D02*
X49442762Y-79698400D01*
X49442762Y-79698400D02*
X49347524Y-79603161D01*
X49347524Y-79603161D02*
X49299905Y-79507923D01*
X49299905Y-79507923D02*
X49252286Y-79317447D01*
X49252286Y-79317447D02*
X49252286Y-79174590D01*
X49252286Y-79174590D02*
X49299905Y-78984114D01*
X49299905Y-78984114D02*
X49347524Y-78888876D01*
X49347524Y-78888876D02*
X49442762Y-78793638D01*
X49442762Y-78793638D02*
X49585619Y-78746019D01*
X49585619Y-78746019D02*
X49680857Y-78746019D01*
X49680857Y-78746019D02*
X49823714Y-78793638D01*
X49823714Y-78793638D02*
X49871333Y-78841257D01*
X50728476Y-79079352D02*
X50728476Y-79746019D01*
X50490381Y-78698400D02*
X50252286Y-79412685D01*
X50252286Y-79412685D02*
X50871333Y-79412685D01*
X30462695Y-101419019D02*
X31034123Y-101419019D01*
X30748409Y-102419019D02*
X30748409Y-101419019D01*
X31367457Y-102419019D02*
X31367457Y-101419019D01*
X31367457Y-101419019D02*
X31748409Y-101419019D01*
X31748409Y-101419019D02*
X31843647Y-101466638D01*
X31843647Y-101466638D02*
X31891266Y-101514257D01*
X31891266Y-101514257D02*
X31938885Y-101609495D01*
X31938885Y-101609495D02*
X31938885Y-101752352D01*
X31938885Y-101752352D02*
X31891266Y-101847590D01*
X31891266Y-101847590D02*
X31843647Y-101895209D01*
X31843647Y-101895209D02*
X31748409Y-101942828D01*
X31748409Y-101942828D02*
X31367457Y-101942828D01*
X32891266Y-102419019D02*
X32319838Y-102419019D01*
X32605552Y-102419019D02*
X32605552Y-101419019D01*
X32605552Y-101419019D02*
X32510314Y-101561876D01*
X32510314Y-101561876D02*
X32415076Y-101657114D01*
X32415076Y-101657114D02*
X32319838Y-101704733D01*
X44461133Y-70561580D02*
X44413514Y-70609200D01*
X44413514Y-70609200D02*
X44270657Y-70656819D01*
X44270657Y-70656819D02*
X44175419Y-70656819D01*
X44175419Y-70656819D02*
X44032562Y-70609200D01*
X44032562Y-70609200D02*
X43937324Y-70513961D01*
X43937324Y-70513961D02*
X43889705Y-70418723D01*
X43889705Y-70418723D02*
X43842086Y-70228247D01*
X43842086Y-70228247D02*
X43842086Y-70085390D01*
X43842086Y-70085390D02*
X43889705Y-69894914D01*
X43889705Y-69894914D02*
X43937324Y-69799676D01*
X43937324Y-69799676D02*
X44032562Y-69704438D01*
X44032562Y-69704438D02*
X44175419Y-69656819D01*
X44175419Y-69656819D02*
X44270657Y-69656819D01*
X44270657Y-69656819D02*
X44413514Y-69704438D01*
X44413514Y-69704438D02*
X44461133Y-69752057D01*
X44842086Y-69752057D02*
X44889705Y-69704438D01*
X44889705Y-69704438D02*
X44984943Y-69656819D01*
X44984943Y-69656819D02*
X45223038Y-69656819D01*
X45223038Y-69656819D02*
X45318276Y-69704438D01*
X45318276Y-69704438D02*
X45365895Y-69752057D01*
X45365895Y-69752057D02*
X45413514Y-69847295D01*
X45413514Y-69847295D02*
X45413514Y-69942533D01*
X45413514Y-69942533D02*
X45365895Y-70085390D01*
X45365895Y-70085390D02*
X44794467Y-70656819D01*
X44794467Y-70656819D02*
X45413514Y-70656819D01*
X49528505Y-100028019D02*
X49528505Y-99028019D01*
X49528505Y-99028019D02*
X49766600Y-99028019D01*
X49766600Y-99028019D02*
X49909457Y-99075638D01*
X49909457Y-99075638D02*
X50004695Y-99170876D01*
X50004695Y-99170876D02*
X50052314Y-99266114D01*
X50052314Y-99266114D02*
X50099933Y-99456590D01*
X50099933Y-99456590D02*
X50099933Y-99599447D01*
X50099933Y-99599447D02*
X50052314Y-99789923D01*
X50052314Y-99789923D02*
X50004695Y-99885161D01*
X50004695Y-99885161D02*
X49909457Y-99980400D01*
X49909457Y-99980400D02*
X49766600Y-100028019D01*
X49766600Y-100028019D02*
X49528505Y-100028019D01*
X50480886Y-99123257D02*
X50528505Y-99075638D01*
X50528505Y-99075638D02*
X50623743Y-99028019D01*
X50623743Y-99028019D02*
X50861838Y-99028019D01*
X50861838Y-99028019D02*
X50957076Y-99075638D01*
X50957076Y-99075638D02*
X51004695Y-99123257D01*
X51004695Y-99123257D02*
X51052314Y-99218495D01*
X51052314Y-99218495D02*
X51052314Y-99313733D01*
X51052314Y-99313733D02*
X51004695Y-99456590D01*
X51004695Y-99456590D02*
X50433267Y-100028019D01*
X50433267Y-100028019D02*
X51052314Y-100028019D01*
X46402314Y-101928019D02*
X45830886Y-101928019D01*
X46116600Y-101928019D02*
X46116600Y-100928019D01*
X46116600Y-100928019D02*
X46021362Y-101070876D01*
X46021362Y-101070876D02*
X45926124Y-101166114D01*
X45926124Y-101166114D02*
X45830886Y-101213733D01*
X35367933Y-69230419D02*
X35034600Y-68754228D01*
X34796505Y-69230419D02*
X34796505Y-68230419D01*
X34796505Y-68230419D02*
X35177457Y-68230419D01*
X35177457Y-68230419D02*
X35272695Y-68278038D01*
X35272695Y-68278038D02*
X35320314Y-68325657D01*
X35320314Y-68325657D02*
X35367933Y-68420895D01*
X35367933Y-68420895D02*
X35367933Y-68563752D01*
X35367933Y-68563752D02*
X35320314Y-68658990D01*
X35320314Y-68658990D02*
X35272695Y-68706609D01*
X35272695Y-68706609D02*
X35177457Y-68754228D01*
X35177457Y-68754228D02*
X34796505Y-68754228D01*
X36272695Y-68230419D02*
X35796505Y-68230419D01*
X35796505Y-68230419D02*
X35748886Y-68706609D01*
X35748886Y-68706609D02*
X35796505Y-68658990D01*
X35796505Y-68658990D02*
X35891743Y-68611371D01*
X35891743Y-68611371D02*
X36129838Y-68611371D01*
X36129838Y-68611371D02*
X36225076Y-68658990D01*
X36225076Y-68658990D02*
X36272695Y-68706609D01*
X36272695Y-68706609D02*
X36320314Y-68801847D01*
X36320314Y-68801847D02*
X36320314Y-69039942D01*
X36320314Y-69039942D02*
X36272695Y-69135180D01*
X36272695Y-69135180D02*
X36225076Y-69182800D01*
X36225076Y-69182800D02*
X36129838Y-69230419D01*
X36129838Y-69230419D02*
X35891743Y-69230419D01*
X35891743Y-69230419D02*
X35796505Y-69182800D01*
X35796505Y-69182800D02*
X35748886Y-69135180D01*
X41779866Y-58541419D02*
X41779866Y-59255704D01*
X41779866Y-59255704D02*
X41732247Y-59398561D01*
X41732247Y-59398561D02*
X41637009Y-59493800D01*
X41637009Y-59493800D02*
X41494152Y-59541419D01*
X41494152Y-59541419D02*
X41398914Y-59541419D01*
X42779866Y-59541419D02*
X42208438Y-59541419D01*
X42494152Y-59541419D02*
X42494152Y-58541419D01*
X42494152Y-58541419D02*
X42398914Y-58684276D01*
X42398914Y-58684276D02*
X42303676Y-58779514D01*
X42303676Y-58779514D02*
X42208438Y-58827133D01*
X30628866Y-53209819D02*
X30628866Y-53924104D01*
X30628866Y-53924104D02*
X30581247Y-54066961D01*
X30581247Y-54066961D02*
X30486009Y-54162200D01*
X30486009Y-54162200D02*
X30343152Y-54209819D01*
X30343152Y-54209819D02*
X30247914Y-54209819D01*
X31057438Y-53305057D02*
X31105057Y-53257438D01*
X31105057Y-53257438D02*
X31200295Y-53209819D01*
X31200295Y-53209819D02*
X31438390Y-53209819D01*
X31438390Y-53209819D02*
X31533628Y-53257438D01*
X31533628Y-53257438D02*
X31581247Y-53305057D01*
X31581247Y-53305057D02*
X31628866Y-53400295D01*
X31628866Y-53400295D02*
X31628866Y-53495533D01*
X31628866Y-53495533D02*
X31581247Y-53638390D01*
X31581247Y-53638390D02*
X31009819Y-54209819D01*
X31009819Y-54209819D02*
X31628866Y-54209819D01*
X51177866Y-49444409D02*
X50844533Y-49444409D01*
X50844533Y-49968219D02*
X50844533Y-48968219D01*
X50844533Y-48968219D02*
X51320723Y-48968219D01*
X52225485Y-49968219D02*
X51654057Y-49968219D01*
X51939771Y-49968219D02*
X51939771Y-48968219D01*
X51939771Y-48968219D02*
X51844533Y-49111076D01*
X51844533Y-49111076D02*
X51749295Y-49206314D01*
X51749295Y-49206314D02*
X51654057Y-49253933D01*
X41411695Y-75557719D02*
X41411695Y-76367242D01*
X41411695Y-76367242D02*
X41459314Y-76462480D01*
X41459314Y-76462480D02*
X41506933Y-76510100D01*
X41506933Y-76510100D02*
X41602171Y-76557719D01*
X41602171Y-76557719D02*
X41792647Y-76557719D01*
X41792647Y-76557719D02*
X41887885Y-76510100D01*
X41887885Y-76510100D02*
X41935504Y-76462480D01*
X41935504Y-76462480D02*
X41983123Y-76367242D01*
X41983123Y-76367242D02*
X41983123Y-75557719D01*
X42983123Y-76557719D02*
X42411695Y-76557719D01*
X42697409Y-76557719D02*
X42697409Y-75557719D01*
X42697409Y-75557719D02*
X42602171Y-75700576D01*
X42602171Y-75700576D02*
X42506933Y-75795814D01*
X42506933Y-75795814D02*
X42411695Y-75843433D01*
D12*
%TO.C,R4*%
X30725342Y-69657700D02*
X31199858Y-69657700D01*
X30725342Y-70702700D02*
X31199858Y-70702700D01*
%TO.C,C3*%
X34098620Y-78814200D02*
X34379780Y-78814200D01*
X34098620Y-79834200D02*
X34379780Y-79834200D01*
%TO.C,Y1*%
X44527400Y-88328600D02*
X40527400Y-88328600D01*
X44527400Y-91628600D02*
X44527400Y-88328600D01*
%TO.C,R2*%
X31461942Y-97038900D02*
X31936458Y-97038900D01*
X31461942Y-98083900D02*
X31936458Y-98083900D01*
%TO.C,C1*%
X33463620Y-50366200D02*
X33744780Y-50366200D01*
X33463620Y-51386200D02*
X33744780Y-51386200D01*
%TO.C,C5*%
X39065148Y-103153800D02*
X40487652Y-103153800D01*
X39065148Y-104973800D02*
X40487652Y-104973800D01*
%TO.C,D1*%
X47274200Y-62408800D02*
X41764200Y-62408800D01*
X47274200Y-65708800D02*
X41764200Y-65708800D01*
X47274200Y-65708800D02*
X47274200Y-62408800D01*
%TO.C,R3*%
X51477142Y-94270300D02*
X51951658Y-94270300D01*
X51477142Y-95315300D02*
X51951658Y-95315300D01*
%TO.C,R1*%
X49800742Y-85710500D02*
X50275258Y-85710500D01*
X49800742Y-86755500D02*
X50275258Y-86755500D01*
%TO.C,C4*%
X49897420Y-80211200D02*
X50178580Y-80211200D01*
X49897420Y-81231200D02*
X50178580Y-81231200D01*
%TO.C,TP1*%
X32924600Y-103962200D02*
G75*
G02*
X30524600Y-103962200I-1200000J0D01*
G01*
X30524600Y-103962200D02*
G75*
G02*
X32924600Y-103962200I1200000J0D01*
G01*
%TO.C,C2*%
X44366548Y-71147000D02*
X44889052Y-71147000D01*
X44366548Y-72617000D02*
X44889052Y-72617000D01*
%TO.C,D2*%
X46766600Y-100323200D02*
X46766600Y-105823200D01*
X46766600Y-100323200D02*
X53766600Y-100323200D01*
X46766600Y-105823200D02*
X53316600Y-105823200D01*
X47566600Y-103973200D02*
X47566600Y-102173200D01*
X52966600Y-103973200D02*
X52966600Y-102173200D01*
X53316600Y-105823200D02*
X53766600Y-105373200D01*
X53766600Y-105373200D02*
X53766600Y-100323200D01*
%TO.C,R5*%
X35297342Y-69683100D02*
X35771858Y-69683100D01*
X35297342Y-70728100D02*
X35771858Y-70728100D01*
%TO.C,J1*%
X37413200Y-51441600D02*
X37413200Y-49541600D01*
X37413200Y-55341600D02*
X37413200Y-53341600D01*
X46813200Y-49541600D02*
X37413200Y-49541600D01*
X46813200Y-51441600D02*
X46813200Y-49541600D01*
X46813200Y-55341600D02*
X46813200Y-53341600D01*
%TO.C,J2*%
X29632200Y-57795000D02*
X29632200Y-65475000D01*
X29632200Y-57795000D02*
X32292200Y-57795000D01*
X29632200Y-65475000D02*
X32292200Y-65475000D01*
X30962200Y-55195000D02*
X32292200Y-55195000D01*
X32292200Y-55195000D02*
X32292200Y-56525000D01*
X32292200Y-57795000D02*
X32292200Y-65475000D01*
%TO.C,F1*%
X50909136Y-50423400D02*
X52113264Y-50423400D01*
X50909136Y-52243400D02*
X52113264Y-52243400D01*
%TO.C,U1*%
X38563600Y-77972900D02*
X38563600Y-77562900D01*
X38563600Y-84542900D02*
X38563600Y-83892900D01*
X39213600Y-77322900D02*
X38863600Y-77322900D01*
X39213600Y-84542900D02*
X38563600Y-84542900D01*
X45133600Y-77322900D02*
X45783600Y-77322900D01*
X45133600Y-84542900D02*
X45783600Y-84542900D01*
X45783600Y-77322900D02*
X45783600Y-77972900D01*
X45783600Y-84542900D02*
X45783600Y-83892900D01*
X38563600Y-77322900D02*
X38323600Y-76992900D01*
X38803600Y-76992900D01*
X38563600Y-77322900D01*
G36*
X38563600Y-77322900D02*
G01*
X38323600Y-76992900D01*
X38803600Y-76992900D01*
X38563600Y-77322900D01*
G37*
%TD*%
M02*
